<?xml version="1.0" encoding="UTF-8" standalone="no"?>
<!-- Generator: Adobe Illustrator 19.2.0, SVG Export Plug-In . SVG Version: 6.00 Build 0)  -->
<svg id="Layer_1" style="enable-background:new 0 0 90 25" xmlns="http://www.w3.org/2000/svg" xml:space="preserve" viewBox="0 0 90 25" version="1.1" y="0px" x="0px" xmlns:xlink="http://www.w3.org/1999/xlink">
<style type="text/css">
	.st0{clip-path:url(#SVGID_2_);fill:#f69434;}
	.st1{fill:#f69434;}
	.st2{fill:#003680;}
</style>
<title>Artboard 2</title>
<desc>Created with Sketch.</desc>
	<defs>
		<polygon id="SVGID_1_" points="60.9 -0.1 65.9 5.9 55.9 5.9"/>
	</defs>
	<clipPath id="SVGID_2_">
		<use xlink:href="#SVGID_1_"/>
	</clipPath>
	<!--<rect x="50.9" y="-5.1" class="st0" width="20" height="16"/>-->
	<path class="st1" d="m69.2 19.9v-2h-0.1c-0.5 0.8-1.2 1.4-2 1.8s-1.6 0.6-2.5 0.6c-1.1 0-1.9-0.1-2.6-0.4s-1.2-0.7-1.6-1.2-0.7-1.1-0.8-1.9-0.2-1.6-0.2-2.5v-8.8h4v8.2c0 1.2 0.2 2.1 0.6 2.7s1 0.9 2 0.9c1.1 0 1.9-0.3 2.4-1 0.5-0.6 0.7-1.7 0.7-3.2v-7.6h4v14.5h-3.9z"/>
	<path class="st1" d="m78.8 5.5v1.8h0.1c0.5-0.8 1.1-1.3 1.8-1.7s1.6-0.5 2.5-0.5c1.1 0 2.1 0.2 2.9 0.6s1.5 1 2 1.7c0.5 0.7 0.9 1.5 1.2 2.5 0.3 0.9 0.4 1.9 0.4 3 0 1-0.1 1.9-0.4 2.8s-0.7 1.7-1.2 2.4-1.2 1.2-2 1.7c-0.8 0.4-1.7 0.6-2.8 0.6-0.9 0-1.7-0.2-2.5-0.5-0.8-0.4-1.4-0.9-1.9-1.6h0.1v6.7h-4v-19.5h3.8zm5.2 11.4c0.4-0.3 0.8-0.6 1.1-1s0.5-0.9 0.6-1.5 0.2-1.1 0.2-1.7-0.1-1.1-0.2-1.7-0.3-1.1-0.6-1.5-0.6-0.8-1.1-1.1-1-0.4-1.6-0.4c-0.7 0-1.2 0.1-1.6 0.4s-0.8 0.6-1.1 1c-0.3 0.4-0.5 0.9-0.6 1.5s-0.2 1.1-0.2 1.7 0.1 1.1 0.2 1.7 0.3 1 0.6 1.5c0.3 0.4 0.6 0.8 1.1 1 0.4 0.3 1 0.4 1.6 0.4 0.6 0.1 1.2 0 1.6-0.3z"/>
	<path class="st2" d="m7.4 8.1c-0.6 0-1.2 0.1-1.6 0.4-0.5 0.3-0.8 0.7-1.1 1.1-0.3 0.5-0.5 1-0.6 1.5s-0.1 1.1-0.1 1.7c0 0.5 0.1 1.1 0.2 1.6s0.3 1 0.5 1.5 0.6 0.8 1 1.1c0.4 0.3 1 0.4 1.6 0.4 1 0 1.7-0.3 2.2-0.8s0.8-1.2 1-2.1h3.8c-0.3 1.9-1 3.4-2.2 4.4s-2.8 1.5-4.7 1.5c-1.1 0-2.1-0.2-3-0.5-0.9-0.4-1.7-0.9-2.3-1.5-0.6-0.7-1.1-1.4-1.5-2.3-0.4-1.1-0.6-2.1-0.6-3.2s0.2-2.2 0.5-3.1c0.3-1 0.8-1.8 1.4-2.5 0.7-0.7 1.4-1.3 2.4-1.6 0.9-0.4 2-0.6 3.1-0.6 0.9 0 1.7 0.1 2.5 0.3s1.5 0.6 2.1 1c0.6 0.5 1.1 1 1.5 1.7s0.6 1.5 0.7 2.4h-3.9c-0.3-1.6-1.2-2.4-2.9-2.4z"/>
	<path class="st2" d="m15.4 9.9c0.1-0.9 0.3-1.7 0.7-2.3s0.9-1.1 1.5-1.5 1.3-0.6 2.1-0.8 1.6-0.2 2.4-0.2c0.7 0 1.5 0.1 2.2 0.2s1.4 0.3 2 0.6c0.6 0.3 1.1 0.7 1.5 1.2s0.6 1.2 0.6 2.1v7.5c0 0.7 0 1.3 0.1 1.9s0.2 1 0.4 1.3h-4c-0.1-0.2-0.1-0.5-0.2-0.7 0-0.2-0.1-0.5-0.1-0.7-0.6 0.7-1.4 1.1-2.2 1.4-0.9 0.3-1.7 0.4-2.6 0.4-0.7 0-1.3-0.1-1.9-0.3s-1.1-0.4-1.6-0.8c-0.4-0.4-0.8-0.8-1.1-1.3s-0.4-1.2-0.4-1.9c0-0.8 0.1-1.5 0.4-2s0.7-1 1.1-1.3c0.5-0.3 1-0.6 1.6-0.7s1.2-0.3 1.8-0.4c0.6-0.1 1.2-0.2 1.8-0.2 0.6-0.1 1.1-0.1 1.5-0.3 0.4-0.1 0.8-0.3 1.1-0.5s0.4-0.5 0.4-0.9-0.1-0.8-0.2-1c-0.1-0.3-0.3-0.4-0.6-0.6-0.2-0.1-0.5-0.2-0.8-0.3-0.3 0-0.6-0.1-1-0.1-0.8 0-1.4 0.2-1.8 0.5s-0.7 0.9-0.8 1.7h-3.9zm9.2 2.9c-0.2 0.1-0.4 0.3-0.6 0.3s-0.5 0.2-0.8 0.2c-0.3 0.1-0.6 0.1-0.9 0.1s-0.6 0.1-1 0.1c-0.3 0.1-0.6 0.1-0.9 0.2s-0.5 0.2-0.8 0.4c-0.2 0.2-0.4 0.4-0.5 0.6s-0.2 0.6-0.2 0.9c0 0.4 0.1 0.7 0.2 0.9s0.3 0.4 0.5 0.6c0.2 0.1 0.5 0.2 0.8 0.3s0.6 0.1 0.9 0.1c0.8 0 1.4-0.1 1.8-0.4s0.7-0.6 1-0.9c0.2-0.4 0.3-0.7 0.4-1.1 0-0.4 0.1-0.7 0.1-0.9v-1.4z"/>
	<path class="st2" d="m34 16.3c0.2 0.3 0.4 0.6 0.7 0.8s0.6 0.3 1 0.4 0.7 0.1 1.1 0.1c0.3 0 0.6 0 0.9-0.1s0.6-0.2 0.8-0.3c0.3-0.1 0.5-0.3 0.6-0.6 0.2-0.2 0.3-0.5 0.3-0.9 0-0.6-0.4-1-1.2-1.3s-1.9-0.6-3.3-0.9c-0.6-0.1-1.1-0.3-1.7-0.5s-1-0.4-1.5-0.7c-0.4-0.3-0.8-0.7-1-1.1-0.3-0.4-0.4-1-0.4-1.6 0-0.9 0.2-1.7 0.5-2.3 0.4-0.6 0.8-1.1 1.4-1.4s1.3-0.6 2-0.7 1.5-0.2 2.3-0.2 1.5 0.1 2.3 0.2c0.7 0.1 1.4 0.4 2 0.8s1.1 0.8 1.4 1.4c0.4 0.6 0.7 1.4 0.8 2.3h-3.8c-0.1-0.8-0.3-1.3-0.9-1.6-0.5-0.3-1.1-0.4-1.8-0.4h-0.7c-0.3 0-0.5 0.1-0.7 0.2s-0.4 0.2-0.5 0.4-0.2 0.4-0.2 0.7c0 0.4 0.1 0.6 0.4 0.9 0.3 0.2 0.6 0.4 1 0.5s0.9 0.3 1.4 0.4 1.1 0.2 1.7 0.4c0.6 0.1 1.1 0.3 1.7 0.5s1 0.4 1.5 0.7c0.4 0.3 0.8 0.7 1 1.1 0.3 0.5 0.4 1 0.4 1.7 0 1-0.2 1.8-0.6 2.4s-0.9 1.2-1.5 1.6-1.3 0.7-2.1 0.8c-0.8 0.2-1.6 0.2-2.4 0.2s-1.7-0.1-2.5-0.3-1.5-0.4-2.1-0.8c-0.6-0.4-1.1-0.9-1.5-1.6-0.4-0.6-0.6-1.5-0.7-2.4h3.8c-0.2 0.6-0.1 0.9 0.1 1.2z"/>
	<path class="st2" d="m48.7-0.1v7.5h0.1c0.5-0.8 1.1-1.5 1.9-1.8s1.5-0.6 2.3-0.6c1.1 0 1.9 0.1 2.6 0.4s1.2 0.7 1.6 1.2 0.7 1.1 0.8 1.9c0.2 0.7 0.2 1.6 0.2 2.4v8.9h-4v-8.2c0-1.2-0.2-2.1-0.6-2.7s-1-0.9-2-0.9c-1.1 0-1.9 0.3-2.4 1-0.5 0.6-0.7 1.7-0.7 3.2v7.6h-4v-20h4.2z"/>
</svg>
