<svg version="1.1" id="Слой_1" xmlns="http://www.w3.org/2000/svg" xmlns:xlink="http://www.w3.org/1999/xlink" x="0px" y="0px"
	 viewBox="0 0 832.3 258.9" enable-background="new 0 0 832.3 258.9" xml:space="preserve">
<g>
	<g>
		
			<linearGradient id="SVGID_1_" gradientUnits="userSpaceOnUse" x1="-65.8914" y1="309.3384" x2="234.9086" y2="309.3384" gradientTransform="matrix(0.5404 0 0 -0.5404 133.0462 221.2181)">
			<stop  offset="0" style="stop-color:#326A9B"/>
			<stop  offset="1" style="stop-color:#4B97DB"/>
		</linearGradient>
		<path fill="url(#SVGID_1_)" d="M130.9,0C193.8-0.1,249.3,45.4,260,108.1c-26.6-26.6-57.3-24.2-62.1-24.2
			C172.2,49,130.2,42,97.4,56.4C101,18.4,130.9,0.1,130.9,0z"/>
		
			<linearGradient id="SVGID_2_" gradientUnits="userSpaceOnUse" x1="-246.1866" y1="216.2636" x2="-18.5914" y2="216.2636" gradientTransform="matrix(0.5404 0 0 -0.5404 133.0462 221.2181)">
			<stop  offset="0" style="stop-color:#4B97DB"/>
			<stop  offset="1" style="stop-color:#326A9B"/>
		</linearGradient>
		<path fill="url(#SVGID_2_)" d="M111.3,207.6c-2.1,0.1-57.1,9-103.8-34.7C1.3,159.4-21.1,75.4,60.5,20.1
			C81.1,7.8,102.3,1.6,123,0.3c-38.2,21-43.2,56.4-43.2,66.6c-12.1,7.8-29.4,32.7-29.9,56.4C46,186.1,103.3,206.9,111.3,207.6z"/>
		
			<radialGradient id="SVGID_3_" cx="6.3086" cy="22.3998" r="172.1111" gradientTransform="matrix(0.5404 0 0 -0.6917 133.0462 224.6077)" gradientUnits="userSpaceOnUse">
			<stop  offset="0" style="stop-color:#5ACBEB"/>
			<stop  offset="1" style="stop-color:#40A2BE"/>
		</radialGradient>
		<path fill="url(#SVGID_3_)" d="M258.2,159.8c-45.1-4.2-68.3,24.8-71.4,28.3c-1.4,1.4-21.7,22-55.9,21.8
			c13.2,16.6,32.8,11.9,40,7.8C84.7,259.1,20.2,196.6,14.7,189c34.4,66.4,108.5,79.1,154.3,64.3C194.6,247,243.2,218.9,258.2,159.8z
			"/>
		
			<linearGradient id="SVGID_4_" gradientUnits="userSpaceOnUse" x1="-190.7572" y1="248.7382" x2="-18.5914" y2="248.7382" gradientTransform="matrix(0.5404 0 0 -0.5404 133.0462 221.2181)">
			<stop  offset="0" style="stop-color:#326A9B"/>
			<stop  offset="0.6657" style="stop-color:#448AC9"/>
			<stop  offset="1" style="stop-color:#4B97DB"/>
		</linearGradient>
		<path fill="url(#SVGID_4_)" d="M40.4,36c5.8-5.5,12.5-10.9,20-16C81.1,7.8,102.3,1.6,123,0.3c-38.2,21-43.2,56.4-43.2,66.6
			c-12.1,7.8-29.4,32.7-29.9,56.4c-1.3,21.1,4.3,37.5,12.7,50C24.6,131.5,23.5,75.3,40.4,36z"/>
		
			<linearGradient id="SVGID_5_" gradientUnits="userSpaceOnUse" x1="-65.9914" y1="352.9383" x2="201.3086" y2="352.9383" gradientTransform="matrix(0.5404 0 0 -0.5404 133.0462 221.2181)">
			<stop  offset="0" style="stop-color:#4B97DB"/>
			<stop  offset="1" style="stop-color:#326A9B"/>
		</linearGradient>
		<path fill="url(#SVGID_5_)" d="M130.9,0c45.6-0.1,87.4,23.8,110.9,61c-20.4-16.1-84-42.4-144.5-4.5C101,18.4,130.9,0.1,130.9,0z"
			/>
	</g>
	<g>
		<path fill="#3682C4" d="M368.3,183.8c-6.9,0-13.1-1.1-18.7-3.3c-5.6-2.2-10.4-5.6-14.4-10.1c-4.2-4.6-7.3-10-9.3-16.1
			c-2-6.1-3-13.1-3-20.8c0-15.4,4.1-27.7,12.3-36.8c4.2-4.6,9-8,14.5-10.2c5.5-2.2,11.7-3.3,18.6-3.3c5.4,0,10.3,0.7,14.8,2
			c4.5,1.3,8.6,3.4,12.4,6.2c4.2,3.2,7.4,6.7,9.4,10.7c2.1,4,3.4,8.5,3.9,13.6h-16.4c-0.3-2.9-1.1-5.5-2.3-7.8
			c-1.3-2.3-2.9-4.3-5-5.9c-2.1-1.6-4.5-2.9-7.4-3.8c-2.8-0.9-5.9-1.3-9.3-1.3c-4.4,0-8.4,0.8-12,2.4c-3.6,1.6-6.6,4-9.2,7.1
			c-2.5,3.1-4.5,6.9-5.8,11.5c-1.4,4.5-2,9.7-2,15.6c0,5.8,0.7,11,2,15.6c1.3,4.5,3.3,8.4,5.8,11.5c2.5,3.1,5.5,5.5,9,7.1
			c3.5,1.6,7.5,2.4,11.9,2.4c3.5,0,6.7-0.4,9.5-1.3c2.8-0.9,5.3-2.2,7.4-3.9c2.1-1.7,3.8-3.8,5-6.2c1.3-2.5,2.1-5.3,2.4-8.5h16.3
			c-1,10.8-5.2,19.1-12.5,25C389,180.9,379.7,183.8,368.3,183.8z"/>
		<path fill="#3682C4" d="M468.9,175.4c-6.3,5.6-14.4,8.4-24.2,8.4c-3.3,0-6.4-0.4-9.4-1.3c-3-0.9-5.6-2.2-7.8-3.9
			c-2.2-1.7-4-3.9-5.3-6.4c-1.3-2.5-1.9-5.5-1.9-8.8c0-8.2,3.5-14.4,10.6-18.4c7.1-4.1,17.7-6.1,31.8-6.1h6c0-2.1,0-4-0.1-5.6
			c-0.1-1.6-0.2-2.9-0.5-3.8c-0.6-2.4-1.7-4.4-3.5-5.7c-2.2-2-6-2.9-11.2-2.9c-5,0-8.9,0.9-11.5,2.8c-2.6,1.8-4,4.7-4.1,8.4h-15
			c0.9-14.5,11.4-21.8,31.4-21.8c4.7,0,8.9,0.4,12.5,1.2c3.6,0.8,6.8,2.2,9.7,4.1c2.7,1.8,4.8,4.4,6.1,7.6c1.3,3.3,2,7.8,2,13.5
			v45.6h-15.6V175.4z M468.8,148.9h-7.6c-8.2,0-14.3,1.1-18.5,3.3c-4.1,2.2-6.2,5.6-6.2,10.3c0,3.4,1.2,6,3.7,7.7s5.7,2.6,9.8,2.6
			c1.9,0,3.7-0.2,5.6-0.6c1.8-0.4,3.6-1,5.2-1.8c1.6-0.8,3.1-1.7,4.5-2.9c1.4-1.1,2.5-2.4,3.6-3.8V148.9z"/>
		<path fill="#3682C4" d="M528.6,183.8c-10,0-17.6-1.9-22.7-5.7c-5.1-3.8-7.9-9.5-8.4-17h15.1c0.1,8,5.4,12.1,15.9,12.1
			c4.6,0,8.2-0.9,10.7-2.8c2.5-1.9,3.7-4.3,3.7-7.1c0-1.9-0.6-3.4-1.9-4.6c-1.2-1.2-2.9-2.2-5-3c-2.1-0.8-4.4-1.5-7-2.2
			c-2.6-0.6-5.3-1.3-8-2s-5.4-1.6-8-2.5c-2.6-1-4.9-2.2-7-3.8c-2.1-1.6-3.7-3.5-5-5.7c-1.2-2.3-1.9-5.1-1.9-8.4
			c0-3.1,0.6-5.9,1.9-8.4c1.3-2.6,3.1-4.8,5.5-6.6c2.4-1.8,5.3-3.3,8.7-4.3c3.4-1,7.3-1.5,11.6-1.5c9.5,0,16.7,1.7,21.5,5.1
			c4.8,3.4,7.3,8.4,7.6,15.1H541c-0.4-6.4-4.9-9.5-13.6-9.5c-1.8,0-3.5,0.2-5.1,0.6c-1.6,0.4-3,0.9-4.2,1.7
			c-1.2,0.7-2.1,1.6-2.8,2.7c-0.7,1.1-1,2.3-1,3.6c0,1.2,0.2,2.2,0.5,3.1c0.3,0.9,1.1,1.7,2.3,2.4c1.2,0.7,3,1.5,5.4,2.2
			c2.4,0.7,5.6,1.6,9.6,2.5c4.5,1.2,8.5,2.4,11.7,3.6c3.3,1.2,6,2.6,8,4.2c2.1,1.6,3.6,3.5,4.6,5.7c1,2.2,1.5,5,1.5,8.3
			c0,3.3-0.6,6.3-1.9,9c-1.2,2.8-3.1,5.1-5.6,7.1c-2.5,2-5.5,3.6-9.2,4.7C537.7,183.3,533.5,183.8,528.6,183.8z"/>
		<path fill="#3682C4" d="M587.9,102.5c0,3.1,0,6.2-0.1,9.2c0,3-0.1,6-0.1,8.9c6.4-7,13.6-10.5,21.5-10.5c15.9,0,23.8,8.6,23.8,25.9
			v46.2h-15.7v-45c0-2.6-0.2-4.8-0.6-6.6c-0.4-1.8-1.1-3.3-2-4.5c-0.9-1.1-2.1-2-3.6-2.5c-1.5-0.5-3.2-0.8-5.3-0.8c-3,0-6,0.8-9,2.3
			c-3,1.6-6,4.1-9,7.6v49.4h-15.7V84.9h15.7V102.5z"/>
		<path fill="#3682C4" d="M748.7,182.2h-15.1v-47.3c0-5.6,0-11.1,0.1-16.5c0-5.5,0.1-10.9,0.1-16.4L708,182.2h-14.6l-26.2-80.2
			c0.1,5.5,0.2,10.9,0.2,16.4c0,5.5,0.1,11,0.1,16.5v47.3h-15.3V84.9h23.5l25,77.2L725,84.9h23.7V182.2z"/>
		<path fill="#3682C4" d="M799.2,183.8c-5.6,0-10.6-0.9-15-2.5c-4.4-1.7-8.1-4.1-11.1-7.3c-3-3.2-5.3-7.1-6.9-11.6
			c-1.6-4.6-2.4-9.7-2.4-15.5s0.8-10.9,2.4-15.4c1.6-4.5,3.9-8.4,6.8-11.6c3-3.2,6.6-5.6,10.8-7.2c4.2-1.7,9-2.5,14.3-2.5
			c5.2,0,9.9,0.8,14.1,2.4c4.2,1.6,7.8,4,10.8,7.1c3,3.1,5.3,6.9,6.9,11.5c1.6,4.5,2.4,9.8,2.4,15.6v3.7h-52.2
			c0.2,3.9,0.8,7.2,1.9,10c1.1,2.8,2.4,5.1,4.1,6.9c1.7,1.8,3.7,3.2,5.9,4.1c2.2,0.9,4.7,1.3,7.3,1.3c2,0,3.8-0.2,5.6-0.6
			c1.8-0.4,3.4-1.1,4.8-2c1.4-0.9,2.6-2.1,3.6-3.6c1-1.5,1.6-3.2,1.9-5.3h15.4c-0.6,3.6-1.8,6.9-3.6,9.7c-1.8,2.8-4.1,5.2-6.8,7.1
			c-2.8,1.9-5.9,3.4-9.5,4.4C807.4,183.3,803.5,183.8,799.2,183.8z M816.2,139.8c-0.4-3.3-1.2-6.2-2.2-8.6c-1-2.4-2.3-4.4-3.9-5.9
			c-1.6-1.6-3.4-2.7-5.4-3.4c-2-0.7-4.2-1.1-6.6-1.1c-4.6,0-8.5,1.6-11.7,4.7c-3.2,3.2-5.2,7.9-6,14.4H816.2z"/>
	</g>
</g>
</svg>