<?xml version="1.0" encoding="UTF-8" standalone="no"?>
<svg id="svg2" xmlns:rdf="http://www.w3.org/1999/02/22-rdf-syntax-ns#" xmlns="http://www.w3.org/2000/svg" version="1.1" enable-background="new 0 0 156 44.2" xmlns:cc="http://creativecommons.org/ns#" xmlns:xlink="http://www.w3.org/1999/xlink" viewBox="0 0 156 44.2" xmlns:dc="http://purl.org/dc/elements/1.1/">
 <metadata id="metadata69">
  <rdf:RDF>
   <cc:Work rdf:about="">
    <dc:format>image/svg+xml</dc:format>
    <dc:type rdf:resource="http://purl.org/dc/dcmitype/StillImage"/>
   </cc:Work>
  </rdf:RDF>
 </metadata>
 <defs id="defs14">
  <path id="a" d="m147.3 12.8c-1.5 0.5-4.2 0.7-5.2 0.7-1.6 0-3.5-0.1-5.3-0.3-0.3 1.1-3.4 11.1-3.6 11.9-0.2 0.5 0 2.6 0.6 1.9 0.9-1.2 2.4-1.5 3.5-1.5s2.2 0.3 3 1c0.8 0.7 1.3 1.8 1.3 2.9 0 3.8-2.3 5.8-5.8 5.8-2.6 0-3.9-1.3-4.9-2.1-0.4 0.8-0.7 1.8-0.7 2.4 0 1.8 2.2 2.4 4.9 2.4 6.3 0 11.2-3.9 11.2-9.5 0-4-2.7-5.9-6.4-5.9-1 0-1.9 0.1-2.6 0.2 0.6-2 1.2-3.9 1.9-5.9 0.9 0.1 2 0.2 3.1 0.2 3.3 0 5.7-0.6 6.7-4.2h-0.4c-0.6-0.2-0.8-0.2-1.3 0"/>
  <clipPath id="clipPath3401" clipPathUnits="userSpaceOnUse">
   <path id="path3403" d="m0 611.59h2082.4v-611.59h-2082.4v611.59z"/>
  </clipPath>
 </defs>
 <clipPath id="b">
  <use id="use18" overflow="visible" xlink:href="#a"/>
 </clipPath>
 <defs id="defs29">
  <path id="d" d="m127.6 27.7c-1.9-0.3-3.1-2.6-2.6-5.1 0.4-2.5 2.3-4.2 4.2-3.9s3.1 2.6 2.6 5.1c-0.4 2.3-2 3.9-3.8 3.9-0.1 0.1-0.2 0.1-0.4 0m-7.6-3.8c0 4.2 1.9 6.8 6.4 6.8 5 0 9.1-4.1 9.1-9.5 0-3.5-2-5.2-5.3-5.2-1.7 0-3.2 0.6-5 2.2 1.3-4.4 4.4-9.2 8.4-9.2 1.5 0 2.5 0.7 3 1.2 0.2-0.7 0.2-1.5 0.2-2.1-0.1-1.6-1.4-2.1-3.2-2.1-8-0.1-13.6 10.4-13.6 17.9"/>
 </defs>
 <clipPath id="e">
  <use id="use33" overflow="visible" xlink:href="#d"/>
 </clipPath>
 <defs id="defs44">
  <path id="g" d="m110 17c0 0.6 0.7 1.5 1.2 2.1 0.8-1.7 2.6-2.7 4.4-2.7 1.6 0 2.7 0.9 2.7 2.6 0 2.7-3.1 4.1-5.8 5-1.6 0.5-3.3 0.9-3.3 2.4 0 0.3 0.1 0.7 0.3 1.2 1.3-0.3 2.6-0.6 3.9-0.5 1.9 0.2 3 1.8 3 3.5 0 2.8-2.3 5.1-5.5 5.1-1.8 0-3.5-0.9-4.6-2.4-0.6 0.9-0.9 2.1-0.9 2.9 0 1.5 1.7 2.3 5.2 2.3 5.2 0 10.4-3.4 10.4-8.6 0-1.4-0.4-2.5-1.2-3.3s-1.8-1.4-3.2-1.4c0 0-0.1 0-0.1-0.1l0.1-0.1c1.8-0.9 3.3-1.7 4.4-2.9 1-1.1 1.6-2.5 1.6-4 0-3.2-2.3-4.6-6.3-4.6-3.4 0.1-6.3 1.2-6.3 3.5"/>
 </defs>
 <clipPath id="h">
  <use id="use48" overflow="visible" xlink:href="#g"/>
 </clipPath>
 <g id="g3397" transform="matrix(.52316 0 0 -.52316 -864.68 172.55)">
  <g id="g3399" clip-path="url(#clipPath3401)">
   <g id="g3405" transform="translate(383.19 313.27)">
    <path id="path3407" d="m0 0c3.087 0.495 6.121 2.867 6.121 7.277 0 4.687-3.362 7.995-10.476 7.995-5.569 0-10.365-2.151-11.414-8.161l3.916-1.046c0.33 2.756 1.819 5.623 7.112 5.623 4.19 0 6.616-1.875 6.616-5.127 0-3.364-2.535-5.072-6.782-5.072h-2.976v-3.253h3.087c4.245 0 7.001-1.764 7.001-5.347 0-3.254-2.26-6.01-6.891-6.01-4.245 0-7.221 2.26-7.939 6.175l-3.804-1.048c0.938-5.459 5.512-8.876 11.798-8.876 6.616 0 11.081 3.694 11.081 9.206 0 4.522-2.867 7.114-6.45 7.498v0.166z" fill="#37a2dd"/>
   </g>
   <g id="g3409" transform="translate(367.24 304.97)">
    <path id="path3411" d="m0 0c1.042-5.043 5.342-8.157 11.315-8.157 6.378 0 10.664 3.531 10.664 8.788 0 4.742-3.139 6.767-6.078 7.083l-0.373 0.04v0.897l0.352 0.056c2.662 0.427 5.769 2.481 5.769 6.865 0 4.815-3.666 7.576-10.057 7.576-4.311 0-9.66-1.302-10.931-7.438l3.086-0.825c0.617 3.661 3.124 5.516 7.459 5.516 4.404 0 7.033-2.073 7.033-5.545 0-3.489-2.624-5.49-7.199-5.49h-2.559v-2.418h2.67c4.714 0 7.418-2.101 7.418-5.764 0-3.905-2.869-6.428-7.308-6.428-4.316 0-7.37 2.26-8.258 6.072l-3.003-0.828zm11.315-8.993c-6.552 0-11.231 3.534-12.21 9.223l-0.063 0.373 4.608 1.269 0.082-0.448c0.68-3.706 3.424-5.832 7.529-5.832 3.932 0 6.472 2.194 6.472 5.592 0 4.289-4.124 4.928-6.582 4.928h-3.505v4.09h3.394c2.903 0 6.363 0.808 6.363 4.654 0 2.994-2.258 4.709-6.197 4.709-4.083 0-6.273-1.718-6.697-5.255l-0.058-0.479-4.751 1.271 0.067 0.377c0.957 5.484 5.156 8.505 11.825 8.505 6.821 0 10.893-3.144 10.893-8.412 0-4.123-2.458-6.406-5.014-7.315 3.291-0.951 5.343-3.807 5.343-7.626 0-5.756-4.621-9.624-11.499-9.624" fill="#37a2dd"/>
   </g>
   <g id="g3413" transform="translate(399.89 314.48)">
    <path id="path3415" d="m0 0 10.42 13.453h-4.686l-7.664-9.868c-2.811-3.64-4.301-6.892-4.301-10.64 0-6.948 4.961-11.027 11.69-11.027 7.001 0 11.74 4.41 11.74 10.641 0 5.899-4.464 9.978-10.528 9.978-2.977 0-5.127-1.048-6.505-2.647l-0.166 0.11zm5.512-14.335c-4.52 0-7.497 2.758-7.497 7.003 0 4.135 2.867 6.782 7.497 6.782 4.687 0 7.609-2.647 7.609-6.782-0.055-4.3-3.087-7.003-7.609-7.003" fill="#37a2dd"/>
   </g>
   <g id="g3417" transform="translate(405.4 313.51)">
    <path id="path3419" d="m0 0c-4.366 0-7.079-2.438-7.079-6.363 0-4 2.778-6.585 7.079-6.585 4.317 0 7.14 2.587 7.19 6.59 0 3.92-2.754 6.358-7.19 6.358m0-13.784c-4.734 0-7.915 2.982-7.915 7.421 0 4.373 3.107 7.199 7.915 7.199 4.876 0 8.026-2.826 8.026-7.199-0.057-4.51-3.208-7.421-8.026-7.421m0.426 27.787-7.538-9.706c-2.953-3.824-4.213-6.93-4.213-10.384 0-6.445 4.424-10.609 11.271-10.609 6.667 0 11.323 4.203 11.323 10.222 0 5.63-4.158 9.562-10.111 9.562-2.637 0-4.777-0.865-6.188-2.502l-0.24-0.278-0.849 0.559 10.175 13.136h-3.63zm-0.48-31.535c-7.241 0-12.107 4.599-12.107 11.445 0 3.653 1.312 6.912 4.388 10.895l7.791 10.031h5.741l-9.294-12c1.321 0.715 2.906 1.085 4.693 1.085 6.343 0 10.946-4.373 10.946-10.398 0-6.51-5-11.058-12.158-11.058" fill="#37a2dd"/>
   </g>
   <g id="g3421" transform="translate(426.63 314.48)">
    <path id="path3423" d="m0 0c0 0.166 0.441 1.764 0.826 4.302l0.882 5.127h14.114v4.024h-17.036l-2.812-16.65 3.474-0.993c0.773 1.599 2.867 3.529 6.726 3.529 4.575 0 7.553-2.646 7.553-6.893 0-4.244-3.032-6.834-7.333-6.834-3.913 0-6.946 2.096-7.664 5.732l-3.747-0.937c1.104-5.127 5.512-8.489 11.522-8.489 6.781 0 11.357 4.191 11.357 10.528 0 6.121-4.245 10.201-10.695 10.201-3.584 0-6.119-1.598-7.057-2.702l-0.11 0.055z" fill="#37a2dd"/>
   </g>
   <g id="g3425" transform="translate(422.11 304.58)">
    <path id="path3427" d="m0 0c1.216-4.803 5.401-7.767 11.021-7.767 6.543 0 10.939 4.063 10.939 10.111 0 5.943-4.034 9.783-10.277 9.783-3.612 0-5.988-1.671-6.739-2.555l-0.212-0.249-0.634 0.316v0.258c0 0.094 0.023 0.203 0.123 0.645 0.155 0.693 0.444 1.984 0.708 3.72l0.944 5.482h14.047v3.189h-16.264l-2.691-15.933 2.788-0.797c0.985 1.723 3.265 3.452 6.936 3.452 4.842 0 7.971-2.87 7.971-7.311 0-4.338-3.114-7.252-7.75-7.252-4.077 0-7.094 2.149-7.977 5.641l-2.933-0.733zm11.021-8.603c-6.094 0-10.777 3.462-11.93 8.821l-0.085 0.395 4.565 1.141 0.085-0.431c0.656-3.328 3.437-5.395 7.254-5.395 4.2 0 6.914 2.518 6.914 6.416 0 3.994-2.733 6.475-7.135 6.475-3.507 0-5.58-1.701-6.349-3.293l-0.153-0.316-4.171 1.192 2.933 17.367h17.807v-4.861h-14.18l-0.822-4.78c-0.209-1.373-0.434-2.473-0.598-3.224 1.265 0.979 3.491 2.059 6.527 2.059 6.647 0 11.113-4.268 11.113-10.619 0-6.547-4.732-10.947-11.775-10.947" fill="#37a2dd"/>
   </g>
   <g id="g3429" transform="translate(201.45 305.6)">
    <path id="path3431" d="m0 0c-2.312-6.045-8.046-9.824-14.802-9.824-9.29 0-16.135 6.535-16.135 16.269 0 9.467 6.845 16.09 16.135 16.09 7.156 0 12.402-3.957 14.49-8.978l-7.378-2c-1.6 2.488-4.134 3.955-7.467 3.955-5.068 0-8.268-3.735-8.268-9.157 0-5.511 3.423-9.111 8.223-9.111 4.09 0 6.623 2.133 7.867 4.711l7.335-1.955z" fill="#f6821a"/>
   </g>
   <g id="g3433" transform="translate(217.37 312.62)">
    <path id="path3435" d="m0 0c2.756 0 4.267 1.379 4.267 4.002 0 2.578-1.422 4.133-4.312 4.133h-4.8v-8.135h4.845zm-1.512-5.955h-1.555-1.778v-10.268h-7.468v31.114h11.824c7.823 0 12.401-4.088 12.401-10.534 0-4.267-2.089-7.423-5.867-8.845l7.112-11.735h-8.845l-5.824 10.268z" fill="#f6821a"/>
   </g>
   <g id="g3437" transform="translate(233.73 327.51)">
    <path id="path3439" d="m0 0h22.669v-6.934h-15.201v-5.334h11.201v-6.222h-11.201v-5.69h15.424v-6.933h-22.892v31.113z" fill="#f6821a"/>
   </g>
   <g id="g3441" transform="translate(273.82 303.33)">
    <path id="path3443" d="m0 0c4.623 0 9.29 2.355 9.29 8.49 0 6.09-4.667 8.756-9.29 8.756h-5.378v-17.246h5.378zm0.4 24.18c9.29 0 16.402-6.311 16.402-15.69 0-9.424-7.156-15.424-16.358-15.424h-13.29v31.114h13.246z" fill="#f6821a"/>
   </g>
   <path id="path3445" d="m294.36 327.51h7.468v-31.113h-7.468v31.113z" fill="#f6821a"/>
   <g id="g3447" transform="translate(322.67 320.58)">
    <path id="path3449" d="m0 0v-24.18h-7.468v24.18h-9.511v6.934h26.491v-6.934h-9.512z" fill="#f6821a"/>
   </g>
   <g id="g3451" transform="translate(176.62 285.84)">
    <path id="path3453" d="m0 0v-1.006c0-1.856-0.208-3.257-1.185-4.837h3.775v5.843h-2.59zm5.327-5.843-0.073-3.162h-1.369v1.892h-6.218v-1.892h-1.369l-0.073 3.162h0.733c0.562 0.706 1.478 2.215 1.478 5.304v1.808h5.718v-7.112h1.173z" fill="#37a2dd"/>
   </g>
   <g id="g3455" transform="translate(175.59 280.08)">
    <path id="path3457" d="m0 0h3.534v5.669h-2.417v-0.919c0-1.77-0.189-3.19-1.117-4.75m3.708-0.174h-4.018l0.081 0.133c0.981 1.584 1.172 2.956 1.172 4.791v1.093h2.765v-6.017zm1.295-2.988h1.196l0.07 2.988h-1.171v7.112h-5.544v-1.721c0-2.308-0.504-4.111-1.498-5.358l-0.026-0.033h-0.685l0.069-2.988h1.196v1.892h6.393v-1.892zm1.366-0.174h-1.54v1.893h-6.045v-1.893h-1.54l-0.077 3.336h0.779c0.951 1.215 1.434 2.97 1.434 5.217v1.895h5.891v-7.112h1.175l-0.077-3.336z" fill="#37a2dd"/>
   </g>
   <g id="g3459" transform="translate(190.88 283.66)">
    <path id="path3461" d="m0 0v-1.269h-4.35v-2.395h4.985v-1.27h-6.549v8.382h6.415v-1.269h-4.851v-2.179h4.35z" fill="#37a2dd"/>
   </g>
   <g id="g3463" transform="translate(185.05 278.81)">
    <path id="path3465" d="m0 0h6.375v1.096h-4.984v2.568h4.349v1.096h-4.349v2.352h4.85v1.096h-6.241v-8.208zm6.549-0.174h-6.723v8.556h6.589v-1.444h-4.851v-2.004h4.35v-1.444h-4.35v-2.22h4.985v-1.444z" fill="#37a2dd"/>
   </g>
   <g id="g3467" transform="translate(196.15 278.72)">
    <path id="path3469" d="m0 0h-1.564v8.382h1.564v-3.353h3.812v3.353h1.564v-8.382h-1.564v3.759h-3.812v-3.759z" fill="#37a2dd"/>
   </g>
   <g id="g3471" transform="translate(200.05 278.81)">
    <path id="path3473" d="m0 0h1.39v8.208h-1.39v-3.354h-3.986v3.354h-1.39v-8.208h1.39v3.76h3.986v-3.76zm1.563-0.174h-1.737v3.76h-3.639v-3.76h-1.737v8.556h1.737v-3.354h3.639v3.354h1.737v-8.556z" fill="#37a2dd"/>
   </g>
   <g id="g3475" transform="translate(206.98 279.99)">
    <path id="path3477" d="m0 0h1.906c0.831 0 1.674 0.18 1.674 1.329 0 1.197-0.99 1.281-1.637 1.281h-1.943v-2.61zm0 3.879h2.224c0.928 0 2.968-0.179 2.968-2.622 0-1.041-0.537-2.526-2.98-2.526h-3.776v8.382h1.564v-3.234z" fill="#37a2dd"/>
   </g>
   <g id="g3479" transform="translate(207.07 280.08)">
    <path id="path3481" d="m0 0h1.819c0.785 0 1.587 0.147 1.587 1.242 0 1.052-0.783 1.194-1.55 1.194h-1.856v-2.436zm1.819-0.174h-1.993v2.783h2.03c0.472 0 1.724 0 1.724-1.367 0-1.269-1.005-1.416-1.761-1.416m-3.382-1.096h3.688c2.611 0 2.894 1.707 2.894 2.44 0 1.683-0.969 2.535-2.881 2.535h-2.312v3.233h-1.389v-8.208zm3.688-0.173h-3.862v8.555h1.737v-3.233h2.138c1.998 0 3.054-0.937 3.054-2.709 0-0.613-0.221-2.613-3.067-2.613" fill="#37a2dd"/>
   </g>
   <g id="g3483" transform="translate(216.99 278.72)">
    <path id="path3485" d="m0 0h-1.564v8.382h5.596v-1.269h-4.032v-7.113z" fill="#37a2dd"/>
   </g>
   <g id="g3487" transform="translate(215.51 278.81)">
    <path id="path3489" d="m0 0h1.391v7.112h4.031v1.096h-5.422v-8.208zm1.564-0.174h-1.738v8.556h5.77v-1.444h-4.032v-7.112z" fill="#37a2dd"/>
   </g>
   <g id="g3491" transform="translate(229.67 287.11)">
    <path id="path3493" d="m0 0h1.527v-8.382h-1.564v6.131l-4.068-6.131h-1.528v8.382h1.564v-6.131l4.069 6.131z" fill="#37a2dd"/>
   </g>
   <g id="g3495" transform="translate(229.72 278.81)">
    <path id="path3497" d="m0 0h1.391v8.208h-1.394l-4.202-6.331v6.331h-1.391v-8.208h1.394l4.202 6.331v-6.331zm1.564-0.174h-1.738v5.931l-3.934-5.931h-1.662v8.556h1.739v-5.931l3.934 5.931h1.661v-8.556z" fill="#37a2dd"/>
   </g>
   <g id="g3499" transform="translate(241.33 279.99)">
    <path id="path3501" d="m0 0h2.138c0.953 0 1.674 0.227 1.674 1.245 0 1.125-0.99 1.198-1.637 1.198h-2.175v-2.443zm0 3.712h2.065c0.867 0 1.393 0.263 1.393 0.993 0 1.115-1.1 1.138-1.43 1.138h-2.028v-2.131zm2.468 3.401c2.175 0 2.603-1.198 2.603-2.12s-0.587-1.652-1.418-1.796v-0.024c0.709-0.12 1.772-0.598 1.772-2.096 0-2.119-1.845-2.346-3.128-2.346h-3.861v8.382h4.032z" fill="#37a2dd"/>
   </g>
   <g id="g3503" transform="translate(241.41 283.79)">
    <path id="path3505" d="m0 0h1.978c0.903 0 1.306 0.279 1.306 0.906 0 0.698-0.451 1.051-1.343 1.051h-1.941v-1.957zm1.978-0.174h-2.152v2.305h2.115c1.32 0 1.517-0.768 1.517-1.225 0-0.726-0.484-1.08-1.48-1.08m-1.978-3.538h2.051c1.127 0 1.587 0.335 1.587 1.158 0 0.979-0.784 1.111-1.55 1.111h-2.088v-2.269zm2.051-0.174h-2.225v2.616h2.262c0.472 0 1.724 0 1.724-1.284 0-1.18-0.942-1.332-1.761-1.332m-3.615-1.095h3.774c1.306 0 3.041 0.234 3.041 2.259 0 1.554-1.189 1.924-1.699 2.01l-0.073 0.013v0.17l0.073 0.011c0.792 0.139 1.344 0.842 1.344 1.712 0 0.927-0.436 2.033-2.515 2.033h-3.945v-8.208zm3.774-0.174h-3.948v8.555h4.119c2.34 0 2.689-1.381 2.689-2.206 0-0.842-0.476-1.545-1.19-1.802 0.62-0.179 1.545-0.686 1.545-2.114 0-2.433-2.42-2.433-3.215-2.433" fill="#37a2dd"/>
   </g>
   <g id="g3507" transform="translate(258.69 279.74)">
    <path id="path3509" d="m0 0c2.114 0 2.517 1.881 2.517 3.174s-0.403 3.172-2.517 3.172-2.517-1.879-2.517-3.172 0.403-3.174 2.517-3.174m0 7.616c0.745 0 4.191-0.096 4.191-4.442 0-4.347-3.446-4.442-4.191-4.442s-4.191 0.095-4.191 4.442c0 4.346 3.446 4.442 4.191 4.442" fill="#f6821a"/>
   </g>
   <g id="g3511" transform="translate(258.69 286)">
    <path id="path3513" d="m0 0c-2.114 0-2.43-1.934-2.43-3.086s0.316-3.086 2.43-3.086 2.43 1.934 2.43 3.086-0.316 3.086-2.43 3.086m0-6.346c-2.35 0-2.604 2.28-2.604 3.26 0 0.981 0.254 3.26 2.604 3.26s2.604-2.279 2.604-3.26c0-0.98-0.254-3.26-2.604-3.26m0 7.616c-1.233 0-4.104-0.424-4.104-4.356 0-3.931 2.871-4.354 4.104-4.354s4.104 0.423 4.104 4.354c0 3.932-2.871 4.356-4.104 4.356m0-8.884c-1.286 0-4.277 0.441-4.277 4.528 0 4.088 2.991 4.529 4.277 4.529s4.277-0.441 4.277-4.529c0-4.087-2.991-4.528-4.277-4.528" fill="#f6821a"/>
   </g>
   <g id="g3515" transform="translate(269.02 285.84)">
    <path id="path3517" d="m0 0v-1.006c0-1.856-0.208-3.257-1.185-4.837h3.775v5.843h-2.59zm5.327-5.843-0.073-3.162h-1.369v1.892h-6.218v-1.892h-1.369l-0.073 3.162h0.733c0.562 0.706 1.478 2.215 1.478 5.304v1.808h5.718v-7.112h1.173z" fill="#f6821a"/>
   </g>
   <g id="g3519" transform="translate(267.99 280.08)">
    <path id="path3521" d="m0 0h3.534v5.669h-2.417v-0.919c0-1.77-0.189-3.19-1.117-4.75m3.708-0.174h-4.018l0.081 0.133c0.981 1.584 1.172 2.956 1.172 4.791v1.093h2.765v-6.017zm1.295-2.988h1.196l0.07 2.988h-1.171v7.112h-5.544v-1.721c0-2.307-0.504-4.11-1.496-5.358l-0.027-0.033h-0.686l0.069-2.988h1.196v1.892h6.393v-1.892zm1.366-0.174h-1.54v1.893h-6.045v-1.893h-1.54l-0.077 3.336h0.78c0.951 1.216 1.433 2.971 1.433 5.217v1.895h5.891v-7.112h1.175l-0.077-3.336z" fill="#f6821a"/>
   </g>
   <g id="g3523" transform="translate(283 287.11)">
    <path id="path3525" d="m0 0h1.527v-8.382h-1.564v6.131l-4.068-6.131h-1.528v8.382h1.564v-6.131l4.069 6.131z" fill="#f6821a"/>
   </g>
   <g id="g3527" transform="translate(283.05 278.81)">
    <path id="path3529" d="m0 0h1.391v8.208h-1.394l-4.202-6.331v6.331h-1.391v-8.208h1.394l4.202 6.331v-6.331zm1.564-0.174h-1.738v5.931l-3.934-5.931h-1.662v8.556h1.739v-5.931l3.934 5.931h1.661v-8.556z" fill="#f6821a"/>
   </g>
   <g id="g3531" transform="translate(289.99 278.72)">
    <path id="path3533" d="m0 0h-1.564v8.382h1.564v-3.353h3.812v3.353h1.564v-8.382h-1.564v3.759h-3.812v-3.759z" fill="#f6821a"/>
   </g>
   <g id="g3535" transform="translate(293.89 278.81)">
    <path id="path3537" d="m0 0h1.391v8.208h-1.391v-3.354h-3.985v3.354h-1.39v-8.208h1.39v3.76h3.985v-3.76zm1.564-0.174h-1.738v3.76h-3.638v-3.76h-1.737v8.556h1.737v-3.354h3.638v3.354h1.738v-8.556z" fill="#f6821a"/>
   </g>
   <g id="g3539" transform="translate(308.93 287.11)">
    <path id="path3541" d="m0 0h1.857l-3.787-3.868 4.105-4.514h-1.98l-3.628 4.347v-4.347h-1.564v8.382h1.564v-3.772l3.433 3.772z" fill="#37a2dd"/>
   </g>
   <path id="path3543" d="m304.02 278.81h1.39v8.208h-1.39v-8.208zm5.146 0h1.742l-4.028 4.43 3.7 3.779h-1.612l-3.472-3.814 0.067-0.079 3.603-4.316zm2.134-0.173h-2.216l-0.025 0.031-3.476 4.163v-4.194h-1.737v8.555h1.737v-3.634l3.309 3.634h2.101l-3.875-3.956 4.182-4.599z" fill="#37a2dd"/>
   <g id="g3545" transform="translate(313.03 279.99)">
    <path id="path3547" d="m0 0c1.869-0.323 1.918 2.119 1.918 3.819v3.294h5.852v-8.382h-1.563v7.112h-2.725v-2.478c0-2.108-0.22-5.15-3.482-4.634v1.269z" fill="#37a2dd"/>
   </g>
   <g id="g3549" transform="translate(313.12 278.8)">
    <path id="path3551" d="m0 0c0.926-0.128 1.663 0.027 2.188 0.478 0.988 0.842 1.121 2.537 1.121 4.082v2.565h2.897v-7.112h1.391v8.208h-5.679v-3.206c0-1.489-0.064-2.994-0.829-3.639-0.287-0.241-0.652-0.336-1.089-0.281v-1.095zm0.602-0.218c-0.222 0-0.456 0.019-0.703 0.058l-0.073 0.012v1.446l0.102-0.017c0.433-0.078 0.777-0.002 1.049 0.228 0.767 0.645 0.767 2.436 0.767 3.506v3.38h6.027v-8.556h-1.739v7.112h-2.55v-2.391c0-1.585-0.14-3.326-1.18-4.214-0.44-0.375-1.01-0.564-1.7-0.564" fill="#37a2dd"/>
   </g>
   <g id="g3553" transform="translate(330.33 287.11)">
    <path id="path3555" d="m0 0h1.527v-8.382h-1.564v6.131l-4.068-6.131h-1.528v8.382h1.564v-6.131l4.069 6.131z" fill="#37a2dd"/>
   </g>
   <g id="g3557" transform="translate(330.38 278.81)">
    <path id="path3559" d="m0 0h1.39v8.208h-1.394l-4.202-6.331v6.331h-1.39v-8.208h1.394l4.202 6.331v-6.331zm1.563-0.174h-1.737v5.931l-3.934-5.931h-1.662v8.556h1.738v-5.931l3.934 5.931h1.661v-8.556z" fill="#37a2dd"/>
   </g>
   <g id="g3561" transform="translate(340.75 287.11)">
    <path id="path3563" d="m0 0h1.857l-3.787-3.868 4.105-4.514h-1.98l-3.628 4.347v-4.347h-1.564v8.382h1.564v-3.772l3.433 3.772z" fill="#37a2dd"/>
   </g>
   <path id="path3565" d="m335.84 278.81h1.39v8.208h-1.39v-8.208zm5.147 0h1.742l-4.029 4.43 3.702 3.779h-1.614l-3.471-3.814 0.066-0.079 3.604-4.316zm2.134-0.173h-2.217l-0.025 0.031-3.476 4.163v-4.194h-1.737v8.555h1.737v-3.634l3.309 3.634h2.102l-3.875-3.956 4.182-4.599z" fill="#37a2dd"/>
   <g id="g3567" transform="translate(406.51 227.93)">
    <path id="path3569" d="m0 0c-1.51 0-2.734 1.224-2.734 2.734 0 1.511 1.224 2.735 2.734 2.735 33.378 0 60.533 27.155 60.533 60.533s-27.155 60.534-60.533 60.534c-31.737 0-58.266-24.777-60.395-56.405-0.102-1.507-1.414-2.649-2.912-2.545-1.506 0.102-2.646 1.405-2.544 2.912 2.321 34.489 31.246 61.506 65.851 61.506 36.394 0 66.002-29.608 66.002-66.002 0-36.399-29.608-66.008-66.002-66.008" fill="#37a2dd"/>
   </g>
   <g id="g3571" transform="translate(332.95 258.92)">
    <path id="path3573" d="m0 0 26.775-6.915c0.952-0.247 1.699-0.985 1.956-1.935l7.446-27.54 22.428 58.761-58.605-22.371zm35.734-47.957c-0.046 0-0.092 0.001-0.138 0.003-1.183 0.06-2.194 0.874-2.503 2.018l-9.226 34.123-33.536 8.662c-1.153 0.298-1.98 1.306-2.047 2.495-0.067 1.188 0.643 2.283 1.755 2.708l72.324 27.608c1.008 0.382 2.147 0.141 2.909-0.622 0.762-0.761 1.005-1.901 0.621-2.908l-27.606-72.328c-0.405-1.063-1.425-1.759-2.553-1.759" fill="#37a2dd"/>
   </g>
   <g id="g3575" transform="translate(1701.3 257.08)">
    <path id="path3577" d="m0 0c-0.934-0.031-1.716 0.7-1.748 1.634-0.031 0.934 0.7 1.717 1.634 1.748 17.652 0.593 31.53 15.437 30.937 33.089-0.594 17.651-15.437 31.529-33.089 30.936-16.784-0.564-30.373-14.138-30.937-30.903-0.031-0.934-0.815-1.658-1.747-1.634-0.934 0.031-1.666 0.814-1.634 1.748 0.301 8.96 3.962 17.403 10.308 23.774 6.376 6.401 14.862 10.093 23.896 10.397 19.517 0.656 35.929-14.688 36.585-34.205 0.656-19.516-14.688-35.928-34.205-36.584" fill="#37a2dd"/>
   </g>
   <g id="g3579" transform="translate(1700.1 325.37)">
    <path id="path3581" d="m0 0c8.355 0 16.282-3.128 22.431-8.877 6.425-6.008 10.126-14.144 10.421-22.912 0.294-8.768-2.852-17.135-8.859-23.56-6.008-6.424-14.144-10.126-22.911-10.42-0.457-0.015-0.816-0.4-0.802-0.856 0.008-0.222 0.101-0.427 0.263-0.578 0.161-0.151 0.355-0.222 0.594-0.223 9.209 0.31 17.756 4.197 24.065 10.947 6.311 6.749 9.615 15.537 9.307 24.746-0.641 19.041-16.69 33.989-35.694 33.372-8.814-0.297-17.093-3.9-23.314-10.145-6.191-6.216-9.763-14.453-10.057-23.194-0.015-0.456 0.344-0.841 0.801-0.857h0.022c0.443 0 0.819 0.356 0.835 0.802 0.577 17.217 14.532 31.157 31.769 31.735 0.377 0.013 0.754 0.02 1.129 0.02m1.105-69.152c-0.649 0-1.264 0.242-1.741 0.687-0.499 0.467-0.786 1.1-0.808 1.781-0.048 1.408 1.059 2.592 2.467 2.64 8.307 0.279 16.017 3.786 21.709 9.874 5.693 6.088 8.673 14.016 8.395 22.322-0.279 8.308-3.786 16.017-9.875 21.709-6.089 5.693-14.025 8.657-22.322 8.395-16.333-0.549-29.556-13.757-30.104-30.069-0.047-1.375-1.192-2.469-2.566-2.469h-0.066c-1.417 0.05-2.523 1.233-2.474 2.64 0.307 9.178 4.057 17.828 10.558 24.355 6.532 6.557 15.225 10.34 24.479 10.65 20.035 0.667 36.805-15.047 37.476-35.038 0.326-9.67-3.144-18.897-9.769-25.983-6.626-7.087-15.6-11.168-25.269-11.492-0.029-0.001-0.059-0.002-0.09-0.002" fill="#37a2dd"/>
   </g>
   <g id="g3583" transform="translate(1662 274.33)">
    <path id="path3585" d="m0 0 14.622-4.008c0.626-0.166 1.114-0.656 1.279-1.282l3.876-14.55 12.521 32.164-32.298-12.324zm19.462-27.9c-0.031 0-0.061 0.001-0.092 0.003-0.778 0.044-1.44 0.585-1.638 1.339l-5.045 19.338-19.067 5.186c-0.757 0.201-1.297 0.869-1.336 1.652-0.039 0.782 0.433 1.5 1.167 1.775l41.284 15.56c0.665 0.249 1.414 0.084 1.913-0.421 0.498-0.505 0.654-1.256 0.396-1.917l-15.894-41.367c-0.271-0.699-0.945-1.153-1.688-1.148" fill="#37a2dd"/>
   </g>
   <g id="g3587" transform="translate(1664.7 274.46)">
    <path id="path3589" d="m0 0 12.077-3.312c0.916-0.243 1.642-0.968 1.886-1.893l3.195-11.995 10.857 27.889-28.015-10.689zm16.85-22.751-4.556 17.105c-0.086 0.327-0.342 0.582-0.667 0.668l-17.174 4.708 36.581 13.959-14.184-36.44zm-0.162-5.283 0.006 0.863c0.362-0.025 0.739 0.237 0.878 0.597l15.893 41.363c0.136 0.348 0.055 0.739-0.205 1.002-0.26 0.264-0.653 0.35-0.995 0.219l-41.284-15.56c-0.385-0.144-0.629-0.515-0.609-0.926 0.021-0.408 0.3-0.753 0.695-0.858l19.555-5.32 5.171-19.822c0.103-0.39 0.446-0.67 0.853-0.694l0.042-0.864zm0.012-0.863h-0.013l-0.144 0.004c-1.149 0.065-2.124 0.861-2.419 1.979l-4.92 18.857-18.584 5.056c-1.119 0.296-1.914 1.277-1.973 2.44-0.056 1.165 0.638 2.219 1.727 2.627l41.283 15.56c0.986 0.369 2.093 0.124 2.831-0.622s0.968-1.859 0.587-2.838l-15.892-41.362c-0.397-1.021-1.393-1.701-2.483-1.701" fill="#37a2dd"/>
   </g>
   <g id="g3591" transform="translate(1765 275.11)">
    <path id="path3593" d="m0 0c3.087 0.495 6.121 2.867 6.121 7.277 0 4.687-3.362 7.995-10.475 7.995-5.57 0-10.365-2.151-11.415-8.161l3.916-1.046c0.33 2.756 1.819 5.623 7.112 5.623 4.19 0 6.616-1.875 6.616-5.127 0-3.364-2.535-5.072-6.781-5.072h-2.977v-3.253h3.087c4.245 0 7.001-1.765 7.001-5.347 0-3.254-2.26-6.01-6.891-6.01-4.245 0-7.221 2.26-7.939 6.175l-3.804-1.048c0.938-5.459 5.512-8.876 11.798-8.876 6.616 0 11.081 3.694 11.081 9.206 0 4.522-2.867 7.114-6.45 7.498v0.166z" fill="#37a2dd"/>
   </g>
   <g id="g3595" transform="translate(1749.1 266.81)">
    <path id="path3597" d="m0 0c1.042-5.043 5.342-8.157 11.315-8.157 6.378 0 10.664 3.531 10.664 8.788 0 4.742-3.139 6.768-6.078 7.083l-0.373 0.04v0.897l0.352 0.056c2.662 0.427 5.77 2.481 5.77 6.864 0 4.816-3.666 7.577-10.058 7.577-4.311 0-9.66-1.302-10.931-7.438l3.086-0.825c0.617 3.661 3.124 5.516 7.459 5.516 4.404 0 7.034-2.073 7.034-5.546 0-3.489-2.625-5.49-7.2-5.49h-2.559v-2.417h2.67c4.715 0 7.419-2.101 7.419-5.764 0-3.905-2.869-6.428-7.309-6.428-4.316 0-7.37 2.26-8.258 6.072l-3.003-0.828zm11.315-8.993c-6.552 0-11.231 3.534-12.21 9.223l-0.063 0.373 4.608 1.269 0.082-0.448c0.68-3.706 3.424-5.832 7.529-5.832 3.932 0 6.473 2.194 6.473 5.592 0 4.289-4.124 4.928-6.583 4.928h-3.505v4.089h3.394c2.903 0 6.364 0.808 6.364 4.654 0 2.994-2.258 4.71-6.198 4.71-4.083 0-6.273-1.718-6.697-5.255l-0.058-0.479-4.751 1.271 0.067 0.377c0.957 5.484 5.156 8.505 11.825 8.505 6.821 0 10.894-3.145 10.894-8.413 0-4.122-2.459-6.405-5.014-7.314 3.291-0.951 5.342-3.807 5.342-7.626 0-5.756-4.621-9.624-11.499-9.624" fill="#37a2dd"/>
   </g>
   <g id="g3599" transform="translate(1781.7 276.32)">
    <path id="path3601" d="m0 0 10.42 13.453h-4.686l-7.664-9.868c-2.811-3.64-4.301-6.892-4.301-10.64 0-6.948 4.961-11.028 11.689-11.028 7.002 0 11.741 4.411 11.741 10.642 0 5.899-4.464 9.978-10.528 9.978-2.977 0-5.127-1.048-6.505-2.647l-0.166 0.11zm5.512-14.335c-4.52 0-7.497 2.758-7.497 7.003 0 4.135 2.867 6.782 7.497 6.782 4.687 0 7.609-2.647 7.609-6.782-0.055-4.3-3.087-7.003-7.609-7.003" fill="#37a2dd"/>
   </g>
   <g id="g3603" transform="translate(1787.2 275.35)">
    <path id="path3605" d="m0 0c-4.366 0-7.079-2.438-7.079-6.364 0-4 2.778-6.585 7.079-6.585 4.317 0 7.14 2.587 7.191 6.591 0 3.92-2.755 6.358-7.191 6.358m0-13.785c-4.734 0-7.915 2.982-7.915 7.421 0 4.374 3.107 7.2 7.915 7.2 4.876 0 8.027-2.826 8.027-7.2-0.058-4.51-3.209-7.421-8.027-7.421m0.426 27.788-7.538-9.706c-2.953-3.824-4.213-6.93-4.213-10.384 0-6.445 4.424-10.609 11.271-10.609 6.667 0 11.323 4.203 11.323 10.222 0 5.629-4.158 9.561-10.11 9.561-2.638 0-4.779-0.865-6.189-2.501l-0.24-0.278-0.849 0.559 10.175 13.136h-3.63zm-0.48-31.535c-7.241 0-12.107 4.599-12.107 11.445 0 3.653 1.312 6.912 4.388 10.895l7.791 10.031h5.741l-9.295-12.001c1.322 0.715 2.907 1.085 4.695 1.085 6.342 0 10.945-4.372 10.945-10.397 0-6.51-5-11.058-12.158-11.058" fill="#37a2dd"/>
   </g>
   <g id="g3607" transform="translate(1808.5 276.32)">
    <path id="path3609" d="m0 0c0 0.166 0.441 1.764 0.826 4.302l0.882 5.127h14.114v4.024h-17.036l-2.812-16.65 3.474-0.993c0.773 1.599 2.867 3.529 6.726 3.529 4.575 0 7.553-2.646 7.553-6.893 0-4.244-3.032-6.834-7.333-6.834-3.913 0-6.946 2.096-7.664 5.732l-3.747-0.937c1.104-5.127 5.512-8.49 11.522-8.49 6.781 0 11.357 4.192 11.357 10.529 0 6.121-4.245 10.201-10.695 10.201-3.584 0-6.119-1.599-7.057-2.702l-0.11 0.055z" fill="#37a2dd"/>
   </g>
   <g id="g3611" transform="translate(1803.9 266.42)">
    <path id="path3613" d="m0 0c1.217-4.802 5.402-7.766 11.022-7.766 6.543 0 10.939 4.063 10.939 10.111 0 5.943-4.034 9.783-10.277 9.783-3.612 0-5.988-1.671-6.739-2.555l-0.212-0.25-0.633 0.318v0.257c0 0.094 0.023 0.203 0.123 0.646 0.155 0.693 0.444 1.984 0.707 3.719l0.944 5.482h14.048v3.189h-16.265l-2.691-15.934 2.788-0.796c0.985 1.723 3.265 3.451 6.936 3.451 4.842 0 7.971-2.87 7.971-7.31 0-4.338-3.114-7.252-7.75-7.252-4.077 0-7.094 2.149-7.977 5.641l-2.934-0.734zm11.022-8.602c-6.094 0-10.777 3.462-11.93 8.82l-0.085 0.395 4.565 1.142 0.085-0.431c0.656-3.328 3.437-5.395 7.254-5.395 4.2 0 6.914 2.518 6.914 6.416 0 3.994-2.733 6.474-7.135 6.474-3.508 0-5.58-1.7-6.349-3.292l-0.153-0.316-4.171 1.191 2.933 17.368h17.808v-4.861h-14.181l-0.822-4.78c-0.209-1.373-0.434-2.473-0.597-3.224 1.265 0.979 3.49 2.059 6.526 2.059 6.647 0 11.113-4.268 11.113-10.619 0-6.547-4.732-10.947-11.775-10.947" fill="#37a2dd"/>
   </g>
   <g id="g3615" transform="translate(1777.1 305.09)">
    <path id="path3617" d="m0 0c-2.312-6.045-8.046-9.822-14.802-9.822-9.289 0-16.135 6.533-16.135 16.267 0 9.467 6.846 16.09 16.135 16.09 7.156 0 12.402-3.955 14.49-8.978l-7.378-2c-1.6 2.49-4.133 3.957-7.467 3.957-5.068 0-8.268-3.735-8.268-9.159 0-5.509 3.423-9.111 8.223-9.111 4.09 0 6.623 2.135 7.867 4.711l7.335-1.955z" fill="#f6821a"/>
   </g>
   <g id="g3619" transform="translate(1793 312.12)">
    <path id="path3621" d="m0 0c2.756 0 4.267 1.377 4.267 4 0 2.578-1.422 4.135-4.311 4.135h-4.801v-8.135h4.845zm-1.511-5.957h-1.556-1.778v-10.268h-7.467v31.116h11.823c7.824 0 12.402-4.09 12.402-10.536 0-4.267-2.09-7.421-5.867-8.845l7.111-11.735h-8.845l-5.823 10.268z" fill="#f6821a"/>
   </g>
   <g id="g3623" transform="translate(1809.4 327.01)">
    <path id="path3625" d="m0 0h22.67v-6.936h-15.202v-5.332h11.201v-6.224h-11.201v-5.69h15.424v-6.933h-22.892v31.115z" fill="#f6821a"/>
   </g>
   <g id="g3627" transform="translate(1849.5 302.83)">
    <path id="path3629" d="m0 0c4.623 0 9.29 2.357 9.29 8.49 0 6.09-4.667 8.756-9.29 8.756h-5.378v-17.246h5.378zm0.4 24.182c9.29 0 16.403-6.313 16.403-15.692 0-9.422-7.157-15.424-16.358-15.424h-13.291v31.116h13.246z" fill="#f6821a"/>
   </g>
   <path id="path3631" d="m1870 327.01h7.468v-31.115h-7.468v31.115z" fill="#f6821a"/>
   <g id="g3633" transform="translate(1898.3 320.07)">
    <path id="path3635" d="m0 0v-24.18h-7.468v24.18h-9.511v6.936h26.492v-6.936h-9.513z" fill="#f6821a"/>
   </g>
  </g>
 </g>
</svg>
