<?xml version="1.0" encoding="UTF-8" standalone="no"?>
<!-- Generator: Adobe Illustrator 16.0.0, SVG Export Plug-In . SVG Version: 6.00 Build 0)  -->
<!DOCTYPE svg  PUBLIC '-//W3C//DTD SVG 1.1//EN'  'http://www.w3.org/Graphics/SVG/1.1/DTD/svg11.dtd'>
<svg id="Layer_1" xmlns="http://www.w3.org/2000/svg" xml:space="preserve" height="121px" viewBox="0 0 105 121" width="105px" version="1.1" y="0px" x="0px" xmlns:xlink="http://www.w3.org/1999/xlink" enable-background="new 0 0 105 121">
			<path id="SVGID_1_" d="m103.08 38.795l-5.135 8.895-1.345-1.675 4.246-7.355c3.241-5.614 1.807-10.504-3.66-13.66l-36.377-20.999c-5.403-3.122-10.601-1.638-13.66 3.66l-19.247 33.339h-2.311l20.326-35.205c3.03-5.254 9.772-7.063 15.027-4.027l38.104 22c5.258 3.037 7.058 9.774 4.028 15.027zm-96.428 39.018l-2.499 4.328c-3.244 5.616-1.791 10.511 3.66 13.659l36.374 20.999c5.574 3.221 10.39 2.003 13.661-3.66l19.709-34.14h2.312l-20.789 36c-3.03 5.254-9.773 7.063-15.026 4.027l-38.107-21.999c-5.254-3.036-7.056-9.773-4.025-15.027l3.162-5.479 1.568 1.288z" fill="#0EAB63"/>
			<path id="SVGID_3_" d="m99.053 97.031l-38.105 22.001c-5.252 3.036-11.995 1.227-15.025-4.027l-20.79-36h2.31l19.709 34.139c3.27 5.663 8.086 6.881 13.661 3.66l36.375-21c5.449-3.147 6.903-8.043 3.66-13.659l-2.521-4.367 1.576-1.271 3.177 5.503c3.03 5.252 1.23 11.989-4.027 15.025z" fill="#0EAB63"/>
			<path id="SVGID_4_" d="m77.096 41l-19.248-33.339c-3.06-5.297-8.255-6.782-13.661-3.66l-36.374 20.999c-5.467 3.156-6.901 8.046-3.66 13.66l4.185 7.249-1.402 1.57-5.014-8.684c-3.03-5.253-1.229-11.99 4.025-15.027l38.104-22c5.254-3.037 11.997-1.227 15.027 4.027l20.326 35.205h-2.308z" fill="#0EAB63"/>
			<defs>
				<path id="SVGID_2_" d="m99.053 97.031l-38.105 22.001c-5.252 3.036-11.995 1.227-15.025-4.027l-20.79-36h2.31l19.709 34.139c3.27 5.663 8.086 6.881 13.661 3.66l36.375-21c5.449-3.147 6.903-8.043 3.66-13.659l-2.521-4.367 1.576-1.271 3.177 5.503c3.03 5.252 1.23 11.989-4.027 15.025z"/>
			</defs>
			<clipPath id="SVGID_5_">
				<use overflow="visible" xlink:href="#SVGID_2_"/>
			</clipPath>
			<path id="SVGID_7_" d="m28.359 56h-2.447l-2.563-4.067h-1.183v4.067h-2.05v-9.953h2.05v3.985h0.937l2.433-3.985h2.501l-3.069 4.709 3.391 5.244zm8.147 0l-0.691-2.05h-3.596l-0.683 2.05h-2.18l3.705-9.953h1.899l3.726 9.953h-2.18zm-2.496-7.437l-1.237 3.725h2.489l-1.252-3.725zm12.705 7.437v-8.292h-3.985v8.292h-2.05v-9.953h8.094v9.953h-2.059zm9.185-1.743l-0.28 0.54c-0.517 0.896-1.304 1.347-2.365 1.347l-0.718-0.027-0.021-1.649c0.109 0.02 0.288 0.027 0.534 0.027 0.287 0 0.519-0.05 0.694-0.149 0.175-0.1 0.322-0.284 0.439-0.554l0.254-0.649-3.494-7.096h2.208l2.201 4.703 1.812-4.703h2.216l-3.48 8.21zm-30.827 16.801l-0.28 0.54c-0.517 0.896-1.304 1.348-2.365 1.348l-0.718-0.027-0.021-1.649c0.109 0.021 0.288 0.027 0.534 0.027 0.287 0 0.519-0.05 0.694-0.149 0.175-0.1 0.322-0.283 0.439-0.554l0.254-0.649-3.494-7.096h2.208l2.201 4.703 1.812-4.703h2.216l-3.48 8.209zm42.056-21.634c-0.05-0.643-0.229-1.109-0.537-1.398-0.307-0.29-0.773-0.434-1.404-0.434-0.683 0-1.194 0.245-1.533 0.734-0.34 0.49-0.516 1.25-0.522 2.28v0.752c0 1.075 0.162 1.861 0.488 2.357 0.325 0.498 0.839 0.746 1.541 0.746 0.633 0 1.106-0.145 1.419-0.434 0.313-0.29 0.49-0.738 0.536-1.343h2.051c-0.077 1.072-0.474 1.914-1.187 2.529-0.713 0.616-1.653 0.924-2.819 0.924-1.274 0-2.28-0.431-3.013-1.289-0.729-0.859-1.097-2.039-1.097-3.538v-0.609c0-0.956 0.169-1.8 0.507-2.529s0.818-1.289 1.445-1.677c0.627-0.391 1.354-0.585 2.184-0.585 1.148 0 2.074 0.307 2.775 0.922 0.702 0.615 1.107 1.48 1.219 2.592h-2.053zm8.68-1.716v8.292h-2.052v-8.292h-3.008v-1.661h8.106v1.661h-3.046zm10.755 8.292l-0.689-2.05h-3.596l-0.683 2.05h-2.182l3.705-9.953h1.9l3.726 9.953h-2.181zm-2.496-7.437l-1.236 3.725h2.488l-1.252-3.725zm-43.868 24.237h-2.447l-2.563-4.065h-1.183v4.065h-2.05v-9.952h2.05v3.984h0.937l2.433-3.984h2.502l-3.069 4.709 3.39 5.243zm8.154 0v-6.61l-3.984 6.61h-2.052v-9.952h2.052v6.623l3.985-6.623h2.057v9.952h-2.058zm5.221 0v-9.952h2.058v8.307h2.764v-8.307h2.057v8.307h2.734v-8.307h2.051v9.952h-11.664zm21.506-1.648v1.648h-6.674v-9.952h6.659v1.66h-4.607v2.373h3.938v1.592h-3.938v2.682h4.622v-0.003zm8.651 1.648v-4.266h-3.998v4.266h-2.051v-9.952h2.051v4.033h3.998v-4.033h2.051v9.952h-2.051zm5.372 0v-9.952h2.051v9.952h-2.051z" fill="#078E61"/>
</svg>
