<?xml version="1.0" encoding="UTF-8" standalone="no"?>
<!-- Generator: Adobe Illustrator 16.0.0, SVG Export Plug-In . SVG Version: 6.00 Build 0)  -->
<!DOCTYPE svg  PUBLIC '-//W3C//DTD SVG 1.1//EN'  'http://www.w3.org/Graphics/SVG/1.1/DTD/svg11.dtd'>
<svg id="Шар_1" xmlns="http://www.w3.org/2000/svg" xml:space="preserve" height="44.59px" viewBox="81.874 15.669 233 44.59" width="233px" version="1.1" y="0px" x="0px" xmlns:xlink="http://www.w3.org/1999/xlink" enable-background="new 81.874 15.669 233 44.59">
		<g fill="#003764">
			<path d="m152.8 54.704c0 0.94-0.23 1.691-0.688 2.215-0.459 0.522-1.086 0.793-1.901 0.793-0.501 0-0.96-0.125-1.335-0.376-0.397-0.251-0.69-0.605-0.898-1.064s-0.312-0.98-0.312-1.587c0-0.94 0.23-1.691 0.689-2.214 0.459-0.522 1.085-0.794 1.9-0.794 0.793 0 1.42 0.271 1.878 0.794 0.42 0.564 0.66 1.295 0.66 2.233zm-4.6 0c0 0.795 0.167 1.42 0.522 1.859 0.355 0.438 0.855 0.668 1.482 0.668 0.648 0 1.128-0.23 1.482-0.668 0.355-0.439 0.522-1.064 0.522-1.859 0-0.793-0.166-1.419-0.522-1.857-0.354-0.439-0.856-0.667-1.482-0.667-0.647 0-1.127 0.228-1.482 0.667-0.33 0.418-0.52 1.044-0.52 1.857z"/>
			<path d="m156.57 51.802v2.547h3.676v-2.547h0.521v5.806h-0.521v-2.799h-3.676v2.799h-0.522v-5.806h0.52z"/>
			<path d="m168.37 57.608h-0.521v-5.303h-2.047c-0.103 1.397-0.229 2.483-0.396 3.215-0.146 0.73-0.355 1.273-0.605 1.628-0.25 0.354-0.563 0.522-0.94 0.522-0.146 0-0.251-0.021-0.355-0.042v-0.48c0.063 0.021 0.167 0.042 0.292 0.042 0.397 0 0.731-0.418 0.982-1.275 0.251-0.855 0.438-2.212 0.563-4.091h3.049v5.784h-0.01z"/>
			<path d="m175.47 57.608l-0.125-0.919h-0.042c-0.292 0.375-0.584 0.647-0.898 0.794-0.313 0.146-0.668 0.229-1.086 0.229-0.563 0-1.001-0.146-1.336-0.438-0.312-0.292-0.48-0.689-0.48-1.21 0-0.564 0.23-1.003 0.71-1.315 0.481-0.313 1.149-0.48 2.047-0.502l1.106-0.041v-0.377c0-0.543-0.104-0.96-0.333-1.253-0.23-0.271-0.585-0.417-1.085-0.417-0.543 0-1.085 0.146-1.671 0.438l-0.188-0.459c0.647-0.293 1.274-0.438 1.899-0.438 0.647 0 1.107 0.166 1.421 0.501 0.312 0.333 0.479 0.856 0.479 1.545v3.863l-0.41-0.001zm-2.13-0.377c0.626 0 1.106-0.167 1.461-0.521 0.355-0.355 0.543-0.856 0.543-1.482v-0.563l-1.023 0.041c-0.814 0.042-1.399 0.167-1.733 0.377-0.355 0.208-0.522 0.543-0.522 1.001 0 0.355 0.104 0.648 0.334 0.855 0.23 0.189 0.54 0.292 0.94 0.292z"/>
			<path d="m179.9 51.802v4.197l-0.042 1.086 3.446-5.283h0.709v5.806h-0.501v-4.177l0.021-1.126-3.446 5.281h-0.689v-5.805h0.501v0.021zm1.79-0.813c-0.522 0-0.94-0.125-1.211-0.354-0.272-0.23-0.438-0.626-0.481-1.148h0.461c0.061 0.397 0.166 0.668 0.354 0.835 0.187 0.167 0.479 0.25 0.876 0.25s0.688-0.083 0.876-0.25c0.189-0.167 0.314-0.438 0.355-0.814h0.479c-0.08 0.98-0.64 1.481-1.71 1.481z"/>
			<path d="m188.12 51.802v2.547h3.674v-2.547h0.522v5.806h-0.51v-2.799h-3.674v2.799h-0.522v-5.806h0.51z"/>
			<path d="m203.53 51.802h0.648l-2.61 2.819 2.776 2.986h-0.709l-2.736-2.944v2.944h-0.522v-5.806h0.544v2.819l2.61-2.818z"/>
			<path d="m209.53 57.711c-0.898 0-1.546-0.333-1.962-1.002h-0.043l0.021 0.438c0.022 0.271 0.022 0.543 0.022 0.856v2.234h-0.523v-8.437h0.438l0.104 0.836h0.042c0.396-0.626 1.044-0.939 1.922-0.939 0.771 0 1.376 0.25 1.794 0.771 0.418 0.522 0.628 1.254 0.628 2.255 0 0.962-0.21 1.692-0.648 2.213-0.46 0.525-1.04 0.775-1.79 0.775zm0-0.458c0.585 0 1.045-0.23 1.378-0.669 0.335-0.438 0.48-1.064 0.48-1.858 0-1.713-0.605-2.546-1.837-2.546-0.668 0-1.17 0.186-1.482 0.562-0.313 0.376-0.48 0.981-0.48 1.816v0.167c0 0.898 0.147 1.545 0.46 1.942 0.29 0.377 0.79 0.586 1.48 0.586z"/>
			<path d="m217.54 57.711c-0.836 0-1.504-0.25-1.963-0.772-0.479-0.521-0.71-1.252-0.71-2.191 0-0.919 0.23-1.672 0.688-2.234 0.46-0.564 1.064-0.836 1.837-0.836 0.689 0 1.233 0.231 1.608 0.71 0.397 0.48 0.585 1.128 0.585 1.942v0.418h-4.176c0 0.794 0.188 1.399 0.564 1.816 0.375 0.418 0.877 0.627 1.565 0.627 0.334 0 0.627-0.021 0.877-0.062 0.25-0.042 0.563-0.146 0.96-0.293v0.48c-0.334 0.146-0.626 0.229-0.897 0.292-0.29 0.083-0.6 0.103-0.94 0.103zm-0.16-5.554c-0.562 0-1.002 0.188-1.336 0.543-0.333 0.375-0.543 0.897-0.584 1.586h3.59c0-0.667-0.145-1.189-0.438-1.586-0.29-0.354-0.71-0.543-1.23-0.543z"/>
			<path d="m227.57 59.571h-0.521v-1.963h-4.448v1.963h-0.5v-2.465h0.375c0.479-0.688 0.855-1.461 1.128-2.358 0.271-0.898 0.396-1.88 0.416-2.945h2.8v5.304h0.772v2.465h-0.03v-0.001zm-1.3-2.465v-4.801h-1.796c-0.083 1.92-0.543 3.528-1.399 4.801h3.2z"/>
			<path d="m230.95 51.802v4.197l-0.041 1.086 3.445-5.283h0.71v5.806h-0.502v-4.177l0.021-1.126-3.445 5.281h-0.689v-5.805h0.501v0.021z"/>
			<path d="m242.33 52.262h-1.941v5.346h-0.522v-5.346h-1.984v-0.46h4.428v0.46h0.01z"/>
			<path d="m245.69 54.245h1.837c1.357 0 2.047 0.543 2.047 1.607 0 0.543-0.188 0.981-0.565 1.295s-0.919 0.459-1.65 0.459h-2.212v-5.806h0.521v2.443l0.01 0.002zm0 0.502v2.358h1.774c0.501 0 0.897-0.104 1.148-0.312 0.25-0.209 0.396-0.522 0.396-0.939 0-0.376-0.125-0.669-0.354-0.835-0.23-0.168-0.648-0.252-1.233-0.252h-1.731v-0.02zm5.43 2.861h-0.522v-5.806h0.522v5.806z"/>
			<path d="m259.72 51.802v2.547h3.676v-2.547h0.522v5.806h-0.522v-2.799h-3.676v2.799h-0.521v-5.806h0.52z"/>
			<path d="m271.04 57.608l-0.125-0.919h-0.042c-0.293 0.375-0.585 0.647-0.897 0.794-0.313 0.146-0.669 0.229-1.086 0.229-0.563 0-1.002-0.146-1.336-0.438-0.313-0.292-0.48-0.689-0.48-1.21 0-0.564 0.23-1.003 0.71-1.315 0.48-0.313 1.148-0.48 2.047-0.502l1.105-0.041v-0.377c0-0.543-0.104-0.96-0.333-1.253-0.23-0.271-0.585-0.417-1.085-0.417-0.544 0-1.087 0.146-1.672 0.438l-0.188-0.459c0.647-0.293 1.274-0.438 1.899-0.438 0.648 0 1.108 0.166 1.421 0.501 0.313 0.333 0.479 0.856 0.479 1.545v3.863l-0.42-0.001zm-2.13-0.377c0.626 0 1.107-0.167 1.462-0.521 0.354-0.355 0.543-0.856 0.543-1.482v-0.563l-1.023 0.041c-0.814 0.042-1.398 0.167-1.733 0.377-0.354 0.208-0.522 0.543-0.522 1.001 0 0.355 0.105 0.648 0.335 0.855 0.2 0.189 0.51 0.292 0.93 0.292z"/>
			<path d="m282.59 51.802h0.648l-2.609 2.819 2.776 2.986h-0.711l-2.733-2.944v2.944h-0.543v-5.806h0.543v2.819l2.62-2.818z"/>
			<path d="m289.6 57.608l-0.125-0.919h-0.042c-0.292 0.375-0.584 0.647-0.897 0.794-0.312 0.146-0.669 0.229-1.086 0.229-0.565 0-1.003-0.146-1.336-0.438-0.314-0.292-0.479-0.689-0.479-1.21 0-0.564 0.229-1.003 0.709-1.315 0.479-0.313 1.15-0.48 2.046-0.502l1.106-0.041v-0.377c0-0.543-0.104-0.96-0.333-1.253-0.231-0.271-0.584-0.417-1.087-0.417-0.543 0-1.086 0.146-1.669 0.438l-0.189-0.459c0.648-0.293 1.276-0.438 1.901-0.438 0.647 0 1.105 0.166 1.419 0.501 0.313 0.333 0.479 0.856 0.479 1.545v3.863l-0.42-0.001zm-2.13-0.377c0.627 0 1.108-0.167 1.461-0.521 0.355-0.355 0.544-0.856 0.544-1.482v-0.563l-1.023 0.041c-0.815 0.042-1.399 0.167-1.732 0.377-0.355 0.208-0.522 0.543-0.522 1.001 0 0.355 0.105 0.648 0.335 0.855 0.22 0.189 0.54 0.292 0.93 0.292z"/>
			<path d="m296.01 57.711c-0.898 0-1.547-0.333-1.965-1.002h-0.042l0.022 0.438c0.02 0.271 0.02 0.543 0.02 0.856v2.234h-0.521v-8.437h0.438l0.104 0.836h0.041c0.397-0.626 1.045-0.939 1.921-0.939 0.772 0 1.378 0.25 1.797 0.771 0.417 0.522 0.624 1.254 0.624 2.255 0 0.962-0.207 1.692-0.647 2.213-0.44 0.525-1.05 0.775-1.78 0.775zm-0.02-0.458c0.585 0 1.045-0.23 1.379-0.669 0.335-0.438 0.479-1.064 0.479-1.858 0-1.713-0.604-2.546-1.836-2.546-0.668 0-1.171 0.186-1.484 0.562-0.312 0.376-0.479 0.981-0.479 1.816v0.167c0 0.898 0.147 1.545 0.46 1.942 0.29 0.377 0.79 0.586 1.48 0.586z"/>
			<path d="m305.34 52.262h-1.942v5.346h-0.5v-5.346h-1.984v-0.46h4.426l-0.01 0.46z"/>
			<path d="m307.2 51.802h0.542l1.232 3.257c0.377 1.003 0.606 1.672 0.71 2.026h0.042c0.147-0.46 0.397-1.148 0.729-2.046l1.234-3.216h0.543l-2.611 6.743c-0.208 0.543-0.375 0.919-0.521 1.106-0.147 0.188-0.313 0.335-0.503 0.439-0.187 0.104-0.418 0.146-0.688 0.146-0.208 0-0.438-0.042-0.668-0.104v-0.459c0.208 0.062 0.438 0.082 0.668 0.082 0.188 0 0.335-0.04 0.48-0.125 0.146-0.082 0.271-0.208 0.376-0.396 0.104-0.188 0.25-0.459 0.397-0.855 0.145-0.397 0.25-0.647 0.292-0.752l-2.25-5.846z"/>
		</g>
		<path d="m147.27 42.608v-23.181h4.625l6.704 9.688 6.705-9.688h4.624v23.181h-4.183v-17.129l-7.166 10.255-7.167-10.255v17.149h-4.141v-0.02z" fill="#003764"/>
		<path d="m173.44 19.427h5.044l6.137 9.414 6.115-9.414h5.044l-9.058 13.238v9.942h-4.182v-9.942l-9.1-13.238z" fill="#003764"/>
		<path d="m199.01 36.008c-0.441-1.429-0.651-3.108-0.651-5 0-1.893 0.209-3.573 0.651-5.001 0.441-1.43 1.01-2.584 1.703-3.449 0.693-0.862 1.534-1.555 2.521-2.08 0.987-0.547 1.956-0.903 2.879-1.071 0.945-0.189 1.954-0.274 3.047-0.274 2.375 0 4.709 0.462 7.02 1.366v3.91c-2.208-1.008-4.414-1.535-6.663-1.535-1.05 0-1.934 0.084-2.669 0.273-0.735 0.19-1.471 0.546-2.164 1.071-0.715 0.527-1.239 1.368-1.62 2.501-0.377 1.136-0.544 2.566-0.544 4.269 0 1.722 0.188 3.149 0.544 4.265 0.359 1.134 0.905 1.954 1.62 2.502 0.714 0.526 1.429 0.883 2.164 1.072s1.642 0.272 2.669 0.272c2.229 0 4.455-0.503 6.663-1.535v3.889c-2.312 0.924-4.665 1.387-7.02 1.387-1.093 0-2.102-0.085-3.047-0.275-0.945-0.188-1.892-0.545-2.879-1.07-0.987-0.546-1.828-1.239-2.521-2.08-0.69-0.821-1.26-1.976-1.7-3.407z" fill="#0055B8"/>
		<path d="m221.08 42.608v-23.181h8.912c2.712 0 4.834 0.651 6.326 1.932 1.514 1.282 2.27 3.133 2.27 5.528 0 3.532-1.702 5.821-5.085 6.853l6.094 8.868h-5.044l-5.527-8.175h-3.741v8.175h-4.2zm4.18-12.002h4.623c1.407 0 2.521-0.25 3.319-0.756 0.799-0.501 1.199-1.45 1.199-2.856 0-1.43-0.4-2.397-1.199-2.88-0.798-0.504-1.911-0.735-3.319-0.735h-4.623v7.227z" fill="#0055B8"/>
		<path d="m243.78 42.608v-23.181h15.426v3.74h-11.25v5.862h9.75v3.931h-9.75v5.864h11.243v3.738h-15.426v0.046z" fill="#0055B8"/>
		<path d="m264.2 42.608v-23.181h8.007c3.593 0 6.306 0.987 8.177 2.964 1.849 1.975 2.793 4.854 2.793 8.658 0 3.782-0.923 6.662-2.773 8.614-1.849 1.977-4.581 2.965-8.176 2.965h-8.027v-0.02zm4.17-3.741h3.824c2.417 0 4.14-0.612 5.191-1.829 1.05-1.22 1.597-3.216 1.597-5.989 0-2.793-0.525-4.813-1.597-6.033-1.052-1.216-2.796-1.828-5.191-1.828h-3.824v15.679z" fill="#0055B8"/>
		<path d="m288.29 42.608v-23.181h4.184v23.181h-4.18z" fill="#0055B8"/>
		<path d="m295.88 23.608v-4.181h18.999v4.181h-7.44v19h-4.183v-19h-7.38z" fill="#0055B8"/>
		<path d="m120.97 17.655c-0.792-1.093-2.547-1.986-3.897-1.986h-32.742c-1.351 0-2.455 1.104-2.455 2.455v3.89h42.267l-3.17-4.359z" fill="#003764"/>
		<path d="m132.36 33.323l-5.167-7.111h-45.317v26.282c0 1.351 1.104 2.455 2.455 2.455h32.749c1.35 0 3.104-0.895 3.897-1.986l11.384-15.668c0.79-1.094 0.79-2.88 0-3.972zm-41.91 16.244h-1.931c-1.069 0-1.932-0.868-1.932-1.934s0.863-1.933 1.932-1.933h1.931c1.069 0 1.932 0.866 1.932 1.933 0.001 1.065-0.862 1.934-1.932 1.934zm15.05 0h-8.194c-1.068 0-1.931-0.868-1.931-1.934s0.862-1.933 1.931-1.933h8.194c1.068 0 1.931 0.866 1.931 1.933 0.01 1.065-0.86 1.934-1.93 1.934zm0.41-9.66h-17.391c-1.069 0-1.932-0.867-1.932-1.933s0.863-1.934 1.932-1.934h17.386c1.069 0 1.932 0.868 1.932 1.934 0.01 1.066-0.86 1.933-1.92 1.933z" fill="#0055B8"/>
</svg>
