<?xml version="1.0" encoding="utf-8"?>
<!-- Generator: Adobe Illustrator 20.0.0, SVG Export Plug-In . SVG Version: 6.00 Build 0)  -->
<svg version="1.1" id="Layer_1" xmlns="http://www.w3.org/2000/svg" xmlns:xlink="http://www.w3.org/1999/xlink" x="0px" y="0px"
	 viewBox="0 0 140 64" style="enable-background:new 0 0 140 64;" xml:space="preserve">
<style type="text/css">
	.st0{fill:#CA1B24;}
	.st1{fill:#FFFFFF;}
	.st2{fill:#77787B;}
</style>
<g>
	<path id="Fill-1" class="st0" d="M32.1,0C49.6,0,64,14.4,64,32c0,17.7-14.4,32-31.9,32C14.4,64,0,49.7,0,32C0,14.4,14.4,0,32.1,0"
		/>
	<path id="Fill-4" class="st1" d="M6.7,26.7H7c0.4,0,0.8,0.4,0.8,0.9v9.5C7.8,37.6,7.4,38,7,38H6.7v0.3H11V38h-0.3
		c-0.4,0-0.8-0.4-0.8-0.9v-9.5v-0.5h5.5v10c0,0.5-0.4,0.9-0.8,0.9h-0.3v0.3h4.2V38h-0.3c-0.4,0-0.8-0.4-0.8-0.9v-9.5
		c0-0.5,0.4-0.9,0.8-0.9h0.3v-0.4H6.7V26.7z M40.7,27L37,35.3l-4-9h-5.6v0.4c0.5,0,0.7,0.5,0.4,1.1l-2.7,6l-2.9-6.2
		c-0.2-0.5-0.1-0.9,0.2-0.9h0.3v-0.4h-3.8v0.4c0.6,0.1,0.9,0.5,1.4,1.4l3.8,8l-0.5,1.2c-0.2,0.4-0.5,0.7-1.1,0.4
		c-0.1-0.1-0.5-0.2-0.9-0.6l0.2,1.3h1c0.7,0,1.3-0.3,1.6-1l4.3-9.4c0.3-0.7,0.9-1.2,1.4-1.2c0.7,0,0.9,0.4,0.9,0.9v9.5
		c0,0.5-0.4,0.9-0.8,0.9h-0.3v0.3H33v-0.3h-0.3c-0.4,0-0.8-0.4-0.8-0.9v-9l4.4,10.3h0.2L41,28.4v8.8c0,0.5-0.4,0.9-0.8,0.9h-0.3v0.3
		h4.2v-0.3h-0.3c-0.4,0-0.8-0.4-0.8-0.9v-9.5c0-0.5,0.4-0.9,0.8-0.9h0.3v-0.4H41L40.7,27z M51.6,26.1c-2.8,0.1-4,2.3-3.7,4.9h0.5
		c0-1.1,0.2-2.3,0.6-2.9c0.6-0.8,1.3-1.1,2.1-1.1c2.7,0,3.5,3.4,3.5,5.6c0,1.2-0.3,3.4-1.4,4.3c-1.3,1.1-3,0.4-4-0.7
		c-1.2-1.5-2-3.6-2.3-5.6c-0.4-3.2,0.4-7.5,4.5-7.3h1.1c1.2,0,2-0.2,2.8-0.6c0.6-0.4,1-1,1.1-2h-0.3c-0.1,0.3-0.4,0.5-0.7,0.6
		c-0.4,0.1-1.1,0.2-2.2,0.1h-1.6c-2,0-3.4,0.7-4.4,2.3c-1,1.5-1.5,3.5-1.5,6.8c0,2.7,0.5,4.7,1.5,6s2.5,2,4.2,2
		c3.4,0,5.5-3.1,5.5-6.4C57,28.8,55,26.1,51.6,26.1L51.6,26.1z"/>
	<path id="Fill-6" class="st2" d="M105.2,29.2l0.2,1.6h0.7v-2.5h-0.9l-0.2-0.1v-4.9l0.2-0.2l0.7-0.1v-0.5H103V23l0.6,0.1l0.2,0.2v5
		h-2.7v-5l0.2-0.2l0.6-0.1v-0.5H99V23l0.7,0.1l0.2,0.2v4.9l-0.2,0.2L99,28.5V29h5.8L105.2,29.2z M96.5,27.7
		c-0.8,0.5-1.3,0.6-1.6,0.6c-0.8,0-1.1-0.6-1.1-1.1c0-0.7,0.5-1,0.9-1.2c0.5-0.2,1.2-0.4,1.8-0.6L96.5,27.7z M97.6,28.2v-3.8
		c0-0.3,0-1-0.4-1.4c-0.5-0.5-1.3-0.5-1.6-0.5c-1.9,0-2.7,0.8-2.7,1.5c0,0.3,0.3,0.3,0.4,0.3h0.9v-1.1c0.3-0.1,0.7-0.2,1-0.2
		c1.2,0,1.2,1,1.2,1.5v0.4c-1.4,0.3-2.1,0.6-2.5,0.7c-0.6,0.3-1.3,0.7-1.3,1.7c0,0.8,0.5,1.7,1.7,1.7c0.5,0,1.2-0.2,2.2-0.9l0.2,0.8
		h1.9v-0.5h-0.7L97.6,28.2z M122.1,24.2c0.3,0,0.7-0.2,0.7-0.7c0-0.6-0.4-1.1-2-1.1c-1.5,0-3.3,0.7-3.3,3.4c0,2,1.2,3.3,3,3.3
		c0.5,0,1.2-0.1,2.4-0.7v-0.7c-0.2,0.1-1,0.6-1.9,0.6c-2,0-2.2-1.9-2.2-2.2h3v-0.6h-3c0-0.6,0.2-1.2,0.5-1.7
		c0.5-0.6,1.1-0.7,1.5-0.7c0.3,0,0.5,0,0.8,0.2v0.8C121.6,24.1,121.8,24.2,122.1,24.2L122.1,24.2z M115.2,39.2
		c0-0.7,0.2-1.5,0.6-2.1c0.4-0.5,1-0.6,1.3-0.6s0.5,0.1,0.7,0.2v1.1c0.2,0.1,0.5,0.2,0.6,0.2c0.4,0,0.7-0.3,0.7-0.7
		c0-0.5-0.5-1.2-1.9-1.2c-1.9,0-3.2,1.2-3.2,3.3s1.3,3.3,3,3.3c0.5,0,1.1-0.1,2.1-0.7v-0.7c-0.4,0.3-1,0.6-1.7,0.6
		C115.2,41.8,115.2,39.6,115.2,39.2L115.2,39.2z M102.4,41.9c-0.3,0-0.6,0-1-0.1v-3.5c0.3,0,0.9-0.1,1.3-0.1s1.2,0,1.7,0.5
		c0.4,0.4,0.5,0.9,0.5,1.3C104.9,41.8,103.3,41.9,102.4,41.9L102.4,41.9z M101.4,34.2c0.1,0,0.5,0,0.8,0c0.9,0,2.1,0.3,2.1,1.6
		c0,0.9-0.6,1.8-2.5,1.8c-0.2,0-0.3,0-0.5,0L101.4,34.2L101.4,34.2z M105.4,38.2c-0.5-0.3-1.2-0.4-1.6-0.4l0,0
		c0.4-0.1,1-0.3,1.3-0.6c0.5-0.4,0.6-0.9,0.6-1.4c0-0.7-0.2-1.3-1-1.7c-0.6-0.3-1.4-0.4-2.1-0.4h-3.4v0.5l0.8,0.1l0.2,0.2v7.3
		L100,42l-0.8,0v0.5h3.5c0.7,0,1.8-0.1,2.6-0.7c0.7-0.6,0.9-1.3,0.9-1.8C106.2,39.2,106,38.6,105.4,38.2L105.4,38.2z M113.4,28.5
		c-0.3,0-1-0.1-1.5-1c-0.3-0.6-0.3-1.3-0.3-1.7c0-1.4,0.5-2.7,1.8-2.7c0.5,0,1,0.2,1.3,0.6c0.1,0.2,0.6,0.8,0.6,2.1
		C115.2,26.5,114.9,28.5,113.4,28.5L113.4,28.5z M116.4,25.8c0-1-0.4-1.9-0.9-2.5c-0.4-0.4-1-0.8-2.1-0.8c-1.7,0-2.8,1.3-3,2.9h-1.5
		v-2l0.2-0.2l0.6-0.1v-0.5h-2.9v0.5l0.7,0.1l0.2,0.2v4.9l-0.2,0.2l-0.7,0.1V29h2.9v-0.5l-0.6-0.1l-0.2-0.2v-2.3h1.5
		c0,1.8,1.1,3.1,3,3.1C115,29.1,116.4,27.8,116.4,25.8L116.4,25.8z M93.3,36.8v2.3c-0.2,0-0.5,0.1-0.8,0.1c-1,0-1.7-0.3-1.7-1.2
		c0-1.2,1-1.2,1.6-1.2C92.7,36.7,92.9,36.7,93.3,36.8L93.3,36.8z M89.7,37.9c0,0.9,0.7,1.5,1.7,1.6l0,0c-0.6,0.2-0.8,0.6-0.9,0.9
		l-0.8,1.5l-0.2,0.2L88.8,42v0.5h1.9v-0.4l0.8-1.6c0.2-0.4,0.4-0.8,1-0.8h0.9v2.1L93,42h-0.6v0.5h2.9V42h-0.7l-0.2-0.2v-4.9l0.2-0.2
		l0.7-0.1v-0.5H92C91.2,36.1,89.7,36.3,89.7,37.9L89.7,37.9z M111.2,41.3c-0.8,0.5-1.3,0.6-1.6,0.6c-0.8,0-1.1-0.6-1.1-1.1
		c0-0.7,0.5-1,0.9-1.2c0.5-0.2,1.2-0.4,1.8-0.6L111.2,41.3z M112.3,41.8V38c0-0.3,0-1-0.4-1.4c-0.5-0.5-1.3-0.5-1.6-0.5
		c-1.9,0-2.6,0.8-2.6,1.5c0,0.3,0.3,0.3,0.4,0.3h0.9v-1.1c0.3-0.1,0.7-0.2,1-0.2c1.2,0,1.2,1,1.2,1.5v0.4c-1.4,0.3-2.1,0.6-2.5,0.7
		c-0.6,0.3-1.3,0.7-1.3,1.7c0,0.8,0.5,1.7,1.7,1.7c0.5,0,1.2-0.2,2.2-0.9l0.2,0.8h1.9V42h-0.7L112.3,41.8z M87.1,23.7
		c0.3-0.2,0.9-0.4,1.4-0.4c1.3,0,1.9,1.1,1.9,2.4c0,1.4-0.8,2.7-2.3,2.7c-0.2,0-0.5,0-1-0.2V23.7z M88.2,31.4l-0.8-0.1l-0.2-0.2
		v-2.2c0.7,0.1,1.1,0.1,1.2,0.1c1,0,1.7-0.3,2.3-0.8c0.5-0.5,1-1.3,1-2.6c0-2.1-1.2-3.1-2.5-3.1c-0.5,0-1.1,0.1-1.9,0.8v-0.7h-0.5
		L85.1,23v0.4H86v7.7l-0.2,0.2l-0.7,0.1v0.5h3.1L88.2,31.4z M78.9,28.4l-0.8-0.1l-0.2-0.2v-7.5h4.3v7.5L82,28.3l-0.8,0.1V29h3.2
		v-0.5l-0.8-0.1l-0.2-0.2v-7.3l0.2-0.2l0.8-0.1v-0.5h-8.6v0.5l0.8,0.1l0.2,0.2v7.3l-0.2,0.2l-0.8,0.1V29H79L78.9,28.4L78.9,28.4z
		 M137.4,27.6c-0.4,0.6-0.9,0.9-1.4,0.9c-0.4,0-1.1-0.2-1.5-1c-0.3-0.6-0.3-1.2-0.3-1.7c0-0.7,0.1-1.6,0.6-2.1
		c0.4-0.6,1-0.6,1.3-0.6s0.8,0,1.3,0.6s0.6,1.6,0.6,2.1C137.9,26.4,137.8,27,137.4,27.6L137.4,27.6z M136,22.5
		c-2.1,0-3.1,1.6-3.1,3.3c0,1.1,0.4,1.9,0.8,2.3c0.4,0.4,1.1,1,2.2,1c1.1,0,1.8-0.5,2.2-0.9c0.5-0.5,0.9-1.3,0.9-2.4
		C139.1,24,138,22.5,136,22.5L136,22.5z M83.3,36.6l0.8,0.1l0.2,0.2c0,0.8-0.1,1.8-0.3,2.6c-0.3,1.3-0.6,1.9-0.9,2.2l-0.8-0.6
		c-0.3,0.2-0.5,0.4-0.5,0.8c0,0.2,0.1,0.7,0.7,0.7c0.5,0,0.9-0.3,1.2-0.6c0.3-0.3,0.7-0.9,1-2.3c0.2-0.9,0.3-2.1,0.4-3h1.5v5
		L86.2,42h-0.6v0.5h2.9V42h-0.7l-0.2-0.2v-4.9l0.2-0.2l0.7-0.1v-0.5h-5.2V36.6z M129.5,22.9l-1.6,4.5l-1.6-4.5v-0.3h-2.6v0.5
		l0.7,0.1l0.2,0.2v4.9l-0.2,0.2l-0.7,0.1V29h2.5v-0.5l-0.6-0.1l-0.2-0.2v-5.1l2.2,5.8h0.5l2.1-5.8v5.1l-0.2,0.2l-0.6,0.1V29h2.9
		v-0.5l-0.7-0.1l-0.2-0.2v-4.9l0.2-0.2l0.7-0.1v-0.5h-2.6v0.4H129.5z M79.6,41.9h-3.1c0.9-1.6,1.5-3.6,1.8-5.2h1.2L79.6,41.9
		L79.6,41.9z M80.7,41.8v-4.9l0.2-0.2l0.7-0.1v-0.5h-5v0.5l0.8,0.1l0.2,0.2c-0.2,1.5-0.8,3.4-1.9,5H75v2.5h0.7l0.2-1.6l0.2-0.2h4.4
		l0.2,0.2l0.2,1.6h0.7v-2.5L80.7,41.8L80.7,41.8z"/>
</g>
</svg>
