<?xml version="1.0" encoding="utf-8"?>
<!-- Generator: Adobe Illustrator 17.0.1, SVG Export Plug-In . SVG Version: 6.00 Build 0)  -->
<!DOCTYPE svg PUBLIC "-//W3C//DTD SVG 1.1//EN" "http://www.w3.org/Graphics/SVG/1.1/DTD/svg11.dtd">
<svg version="1.1" id="Capa_1" xmlns="http://www.w3.org/2000/svg" xmlns:xlink="http://www.w3.org/1999/xlink" x="0px" y="0px"
	 width="1000px" height="792px" viewBox="0 0 1000 792" enable-background="new 0 0 1000 792" xml:space="preserve">
<path fill="#F3C969" d="M821.706,213.021l-72.372-35.503v600.828l101.048-505.241C855.844,248.524,843.554,223.945,821.706,213.021z
	"/>
<g>
	<path fill="#61CA36" d="M827.168,146.11l-65.545-32.772c-4.096-32.772-32.772-58.717-66.91-58.717H379.278
		C372.45,23.214,345.14,0,312.368,0h-54.621c-32.772,0-61.448,24.579-66.91,55.986c-31.407,5.462-55.986,34.138-55.986,66.91
		v600.828c0,38.234,30.041,68.276,68.276,68.276h491.586c36.869,0,68.276-28.676,68.276-65.545l0,0l101.048-505.241
		C869.499,191.172,854.478,159.766,827.168,146.11z M257.747,27.31h54.621c17.752,0,32.772,10.924,38.234,27.31h-131.09
		C224.975,38.234,239.995,27.31,257.747,27.31z M735.678,723.724c0,23.214-17.752,40.966-40.966,40.966H544.506v-40.966
		c0-8.193-5.462-13.655-13.655-13.655s-13.655,5.462-13.655,13.655v40.966h-27.31v-95.586c0-8.193-5.462-13.655-13.655-13.655
		s-13.655,5.462-13.655,13.655v95.586h-27.31v-40.966c0-8.193-5.462-13.655-13.655-13.655s-13.655,5.462-13.655,13.655v40.966
		H271.402v-40.966c0-8.193-5.462-13.655-13.655-13.655s-13.655,5.462-13.655,13.655v40.966h-40.966
		c-23.214,0-40.966-17.752-40.966-40.966V122.897c0-23.214,17.752-40.966,40.966-40.966h150.207v259.448
		c0,23.214-17.752,40.966-40.966,40.966s-40.966-17.752-40.966-40.966V122.897c0-8.193-5.462-13.655-13.655-13.655
		s-13.655,5.462-13.655,13.655v218.483c0,38.234,30.041,68.276,68.276,68.276s68.276-30.041,68.276-68.276V81.931h314.069
		c23.214,0,40.966,17.752,40.966,40.966V723.724z M836.726,215.752l-73.738,370.055V144.745l51.89,25.945
		C831.264,178.883,840.823,198,836.726,215.752z"/>
	<path fill="#61CA36" d="M640.092,163.862H476.23c-8.193,0-13.655,5.462-13.655,13.655c0,8.193,5.462,13.655,13.655,13.655h163.862
		c8.193,0,13.655-5.462,13.655-13.655C653.747,169.324,648.285,163.862,640.092,163.862z"/>
	<path fill="#61CA36" d="M640.092,273.103H476.23c-8.193,0-13.655,5.462-13.655,13.655c0,8.193,5.462,13.655,13.655,13.655h163.862
		c8.193,0,13.655-5.462,13.655-13.655C653.747,278.566,648.285,273.103,640.092,273.103z"/>
	<path fill="#61CA36" d="M476.23,409.655h54.621c8.193,0,13.655-5.462,13.655-13.655s-5.462-13.655-13.655-13.655H476.23
		c-8.193,0-13.655,5.462-13.655,13.655S468.037,409.655,476.23,409.655z"/>
	<path fill="#61CA36" d="M640.092,382.345h-54.621c-8.193,0-13.655,5.462-13.655,13.655s5.462,13.655,13.655,13.655h54.621
		c8.193,0,13.655-5.462,13.655-13.655S648.285,382.345,640.092,382.345z"/>
	<path fill="#61CA36" d="M421.609,546.207H257.747c-8.193,0-13.655,5.462-13.655,13.655c0,8.193,5.462,13.655,13.655,13.655h163.862
		c8.193,0,13.655-5.462,13.655-13.655C435.264,551.669,429.802,546.207,421.609,546.207z"/>
	<path fill="#61CA36" d="M640.092,546.207H476.23c-8.193,0-13.655,5.462-13.655,13.655c0,8.193,5.462,13.655,13.655,13.655h163.862
		c8.193,0,13.655-5.462,13.655-13.655C653.747,551.669,648.285,546.207,640.092,546.207z"/>
	<path fill="#61CA36" d="M640.092,327.724H476.23c-8.193,0-13.655,5.462-13.655,13.655s5.462,13.655,13.655,13.655h163.862
		c8.193,0,13.655-5.462,13.655-13.655S648.285,327.724,640.092,327.724z"/>
	<path fill="#61CA36" d="M544.506,505.241c0-8.193-5.462-13.655-13.655-13.655H257.747c-8.193,0-13.655,5.462-13.655,13.655
		c0,8.193,5.462,13.655,13.655,13.655H530.85C539.044,518.897,544.506,513.434,544.506,505.241z"/>
	<path fill="#61CA36" d="M640.092,491.586h-54.621c-8.193,0-13.655,5.462-13.655,13.655c0,8.193,5.462,13.655,13.655,13.655h54.621
		c8.193,0,13.655-5.462,13.655-13.655C653.747,497.048,648.285,491.586,640.092,491.586z"/>
	<path fill="#61CA36" d="M476.23,245.793h54.621c8.193,0,13.655-5.462,13.655-13.655c0-8.193-5.462-13.655-13.655-13.655H476.23
		c-8.193,0-13.655,5.462-13.655,13.655C462.575,240.331,468.037,245.793,476.23,245.793z"/>
	<path fill="#61CA36" d="M640.092,218.483h-54.621c-8.193,0-13.655,5.462-13.655,13.655c0,8.193,5.462,13.655,13.655,13.655h54.621
		c8.193,0,13.655-5.462,13.655-13.655C653.747,223.945,648.285,218.483,640.092,218.483z"/>
	<path fill="#61CA36" d="M640.092,436.966H476.23c-8.193,0-13.655,5.462-13.655,13.655s5.462,13.655,13.655,13.655h163.862
		c8.193,0,13.655-5.462,13.655-13.655S648.285,436.966,640.092,436.966z"/>
</g>
</svg>
