<?xml version="1.0" encoding="utf-8"?>
<!-- Generator: Adobe Illustrator 17.0.1, SVG Export Plug-In . SVG Version: 6.00 Build 0)  -->
<!DOCTYPE svg PUBLIC "-//W3C//DTD SVG 1.1//EN" "http://www.w3.org/Graphics/SVG/1.1/DTD/svg11.dtd">
<svg version="1.1" id="Capa_1" xmlns="http://www.w3.org/2000/svg" xmlns:xlink="http://www.w3.org/1999/xlink" x="0px" y="0px"
	 width="1000px" height="792px" viewBox="0 0 1000 792" enable-background="new 0 0 1000 792" xml:space="preserve">
<g>
	<path fill="#F3C969" d="M212.969,614.539h54.603c15.016,0,27.302-12.286,27.302-27.302V150.412
		c0-15.016-12.286-27.302-27.302-27.302h-54.603c-15.016,0-27.302,12.286-27.302,27.302v436.826
		C185.668,602.254,197.953,614.539,212.969,614.539z"/>
	<path fill="#F3C969" d="M485.986,614.539c15.016,0,27.302-12.286,27.302-27.302V150.412c0-15.016-12.286-27.302-27.302-27.302
		h-54.603c-15.016,0-27.302,12.286-27.302,27.302v436.826c0,15.016,12.286,27.302,27.302,27.302H485.986z"/>
</g>
<g>
	<path fill="#61CA36" d="M185.668,792h109.207c21.841,0,42.318-10.921,54.603-27.302C361.763,781.079,382.239,792,404.081,792
		h109.207c38.222,0,68.254-30.032,68.254-68.254V288.285l60.064,445.017c2.73,17.746,12.286,34.127,25.937,45.048
		C679.827,787.905,693.478,792,708.494,792c2.73,0,6.825,0,9.556,0l106.476-15.016l0,0c36.857-5.46,62.794-39.587,57.333-76.445
		L794.494,58.951c-2.73-17.746-12.286-34.127-27.302-45.048C753.542,2.983,735.796-1.113,718.05,0.253L611.573,15.268
		c-15.016,2.73-28.667,9.556-39.587,20.476c-10.921-20.476-32.762-35.492-58.698-35.492H404.081
		c-21.841,0-42.318,10.921-54.603,27.302c-12.286-16.381-32.762-27.302-54.603-27.302H185.668
		c-38.222,0-68.254,30.032-68.254,68.254v655.239C117.414,761.968,147.445,792,185.668,792z M615.668,42.57l106.476-15.016
		c1.365,0,4.095,0,5.46,0c8.19,0,16.381,2.73,23.206,8.19c8.19,6.825,13.651,16.381,15.016,27.302l87.365,641.588
		c2.73,21.841-12.286,42.318-34.127,45.048l-105.111,15.016c-10.921,1.365-20.476-1.365-28.667-8.19
		c-8.19-6.825-13.651-16.381-15.016-27.302l-88.73-641.588C578.811,65.776,593.827,45.3,615.668,42.57z M404.081,27.554h109.207
		c23.206,0,40.952,17.746,40.952,40.952v655.239c0,23.206-17.746,40.952-40.952,40.952H404.081
		c-23.206,0-40.952-17.746-40.952-40.952V68.507C363.128,45.3,380.874,27.554,404.081,27.554z M144.715,68.507
		c0-23.206,17.746-40.952,40.952-40.952h109.207c23.206,0,40.952,17.746,40.952,40.952v655.239
		c0,23.206-17.746,40.952-40.952,40.952H185.668c-23.206,0-40.952-17.746-40.952-40.952L144.715,68.507L144.715,68.507z"/>
	<path fill="#61CA36" d="M240.271,737.397c38.222,0,68.254-30.032,68.254-68.254s-30.032-68.254-68.254-68.254
		s-68.254,30.032-68.254,68.254S202.049,737.397,240.271,737.397z M240.271,628.19c23.206,0,40.952,17.746,40.952,40.952
		s-17.746,40.952-40.952,40.952s-40.952-17.746-40.952-40.952S217.065,628.19,240.271,628.19z"/>
	<path fill="#61CA36" d="M212.969,573.587h54.603c23.206,0,40.952-17.746,40.952-40.952V95.808
		c0-23.206-17.746-40.952-40.952-40.952h-54.603c-23.206,0-40.952,17.746-40.952,40.952v436.826
		C172.017,555.841,189.763,573.587,212.969,573.587z M199.319,95.808c0-8.19,5.46-13.651,13.651-13.651h54.603
		c8.19,0,13.651,5.46,13.651,13.651v436.826c0,8.19-5.46,13.651-13.651,13.651h-54.603c-8.19,0-13.651-5.46-13.651-13.651V95.808z"
		/>
	<path fill="#61CA36" d="M240.271,191.364c8.19,0,13.651-5.46,13.651-13.651V123.11c0-8.19-5.46-13.651-13.651-13.651
		s-13.651,5.46-13.651,13.651v54.603C226.62,185.904,232.081,191.364,240.271,191.364z"/>
	<path fill="#61CA36" d="M240.271,409.777c8.19,0,13.651-5.46,13.651-13.651v-163.81c0-8.19-5.46-13.651-13.651-13.651
		s-13.651,5.46-13.651,13.651v163.81C226.62,404.317,232.081,409.777,240.271,409.777z"/>
	<path fill="#61CA36" d="M240.271,518.984c8.19,0,13.651-5.46,13.651-13.651V450.73c0-8.19-5.46-13.651-13.651-13.651
		s-13.651,5.46-13.651,13.651v54.603C226.62,513.523,232.081,518.984,240.271,518.984z"/>
	<path fill="#61CA36" d="M458.684,737.397c38.222,0,68.254-30.032,68.254-68.254s-30.032-68.254-68.254-68.254
		s-68.254,30.032-68.254,68.254S420.462,737.397,458.684,737.397z M458.684,628.19c23.206,0,40.952,17.746,40.952,40.952
		s-17.746,40.952-40.952,40.952c-23.206,0-40.952-17.746-40.952-40.952S435.478,628.19,458.684,628.19z"/>
	<path fill="#61CA36" d="M431.382,573.587h54.603c23.206,0,40.952-17.746,40.952-40.952V95.808
		c0-23.206-17.746-40.952-40.952-40.952h-54.603c-23.206,0-40.952,17.746-40.952,40.952v436.826
		C390.43,555.841,408.176,573.587,431.382,573.587z M417.732,95.808c0-8.19,5.46-13.651,13.651-13.651h54.603
		c8.19,0,13.651,5.46,13.651,13.651v436.826c0,8.19-5.46,13.651-13.651,13.651h-54.603c-8.191,0-13.651-5.46-13.651-13.651V95.808z"
		/>
	<path fill="#61CA36" d="M458.684,191.364c8.19,0,13.651-5.46,13.651-13.651V123.11c0-8.19-5.46-13.651-13.651-13.651
		c-8.191,0-13.651,5.46-13.651,13.651v54.603C445.033,185.904,450.494,191.364,458.684,191.364z"/>
	<path fill="#61CA36" d="M458.684,518.984c8.19,0,13.651-5.46,13.651-13.651V232.316c0-8.191-5.46-13.651-13.651-13.651
		c-8.191,0-13.651,5.46-13.651,13.651v273.016C445.033,513.523,450.494,518.984,458.684,518.984z"/>
	<path fill="#61CA36" d="M745.351,596.793c-36.857,5.46-62.794,39.587-57.333,76.445c2.73,17.746,12.286,34.127,25.937,45.048
		c12.286,9.556,25.937,13.651,40.952,13.651c2.73,0,6.825,0,9.556,0c36.857-5.46,62.794-39.587,57.333-76.445
		c-2.73-17.746-12.286-34.127-25.937-45.048C780.843,598.158,763.097,594.063,745.351,596.793z M760.367,703.27
		c-10.921,1.365-20.476-1.365-28.667-8.19c-8.19-6.825-13.651-16.381-15.016-27.302c-2.73-21.841,12.286-42.318,34.127-45.048
		c1.365,0,4.095,0,5.46,0c8.19,0,16.381,2.73,23.206,8.19c8.19,6.825,13.651,16.381,15.016,27.302
		C797.224,680.063,782.208,700.539,760.367,703.27z"/>
	<path fill="#61CA36" d="M670.272,539.46c1.365,10.921,6.825,20.476,16.381,27.302c6.825,5.46,15.016,8.19,24.571,8.19
		c1.365,0,4.095,0,5.46,0l53.238-6.825c21.841-2.73,36.857-23.206,34.127-46.413L743.986,93.078
		c-1.365-10.921-6.825-20.476-15.016-27.302c-8.19-6.825-19.111-9.556-30.032-8.19L645.7,64.411
		c-21.841,4.095-36.857,24.571-34.127,46.413L670.272,539.46z M649.796,93.078l53.238-6.825h1.365c2.73,0,5.46,1.365,8.19,2.73
		c2.73,2.73,4.095,5.46,5.46,9.556l58.698,427.271c1.365,6.825-4.095,13.651-10.921,15.016l0,0l-54.603,5.46
		c-4.095,0-6.825,0-9.556-2.73c-2.73-2.73-4.095-5.46-5.46-9.556L637.51,106.729C637.51,99.904,642.97,93.078,649.796,93.078z"/>
</g>
</svg>
