<?xml version="1.0" encoding="utf-8"?>
<!-- Generator: Adobe Illustrator 17.0.1, SVG Export Plug-In . SVG Version: 6.00 Build 0)  -->
<!DOCTYPE svg PUBLIC "-//W3C//DTD SVG 1.1//EN" "http://www.w3.org/Graphics/SVG/1.1/DTD/svg11.dtd">
<svg version="1.1" id="Capa_1" xmlns="http://www.w3.org/2000/svg" xmlns:xlink="http://www.w3.org/1999/xlink" x="0px" y="0px"
	 width="1000px" height="792px" viewBox="0 0 1000 792" enable-background="new 0 0 1000 792" xml:space="preserve">
<path fill="#F3C969" d="M827.724,266.276H172.276c-30.041,0-54.621,24.579-54.621,54.621v327.724
	c0,30.041,24.579,54.621,54.621,54.621h655.448c30.041,0,54.621-24.579,54.621-54.621V320.897
	C882.345,290.855,857.766,266.276,827.724,266.276z M500,648.621c-90.124,0-163.862-73.738-163.862-163.862
	S409.876,320.897,500,320.897s163.862,73.738,163.862,163.862S590.124,648.621,500,648.621z"/>
<g>
	<path fill="#61CA36" d="M827.724,198H172.276C134.041,198,104,228.041,104,266.276V594c0,38.234,30.041,68.276,68.276,68.276
		h655.448C865.959,662.276,896,632.234,896,594V266.276C896,228.041,865.959,198,827.724,198z M868.69,594
		c0,23.214-17.752,40.966-40.966,40.966H172.276c-23.214,0-40.966-17.752-40.966-40.966V266.276
		c0-23.214,17.752-40.965,40.966-40.965h655.448c23.214,0,40.966,17.752,40.966,40.965V594z"/>
	<path fill="#61CA36" d="M158.621,157.034c0,8.193,5.462,13.655,13.655,13.655h655.448c8.193,0,13.655-5.462,13.655-13.655
		c0-8.193-5.462-13.655-13.655-13.655H172.276C164.083,143.379,158.621,148.841,158.621,157.034z"/>
	<path fill="#61CA36" d="M773.103,88.759H226.897c-8.193,0-13.655,5.462-13.655,13.655s5.462,13.655,13.655,13.655h546.207
		c8.193,0,13.655-5.462,13.655-13.655S781.297,88.759,773.103,88.759z"/>
	<path fill="#61CA36" d="M500,252.621c-98.317,0-177.517,79.2-177.517,177.517S401.683,607.655,500,607.655
		s177.517-79.2,177.517-177.517S598.317,252.621,500,252.621z M500,580.345c-83.297,0-150.207-66.91-150.207-150.207
		S416.703,279.931,500,279.931s150.207,66.91,150.207,150.207S583.297,580.345,500,580.345z"/>
	<path fill="#61CA36" d="M472.69,389.172h81.931c8.193,0,13.655-5.462,13.655-13.655s-5.462-13.655-13.655-13.655h-40.966v-40.966
		c0-8.193-5.462-13.655-13.655-13.655s-13.655,5.462-13.655,13.655v40.966H472.69c-23.214,0-40.966,17.752-40.966,40.966
		s17.752,40.966,40.966,40.966h54.621c8.193,0,13.655,5.462,13.655,13.655s-5.462,13.655-13.655,13.655h-81.931
		c-8.193,0-13.655,5.462-13.655,13.655s5.462,13.655,13.655,13.655h40.966v40.966c0,8.193,5.462,13.655,13.655,13.655
		s13.655-5.462,13.655-13.655v-40.966h13.655c23.214,0,40.966-17.752,40.966-40.966s-17.752-40.966-40.966-40.966H472.69
		c-8.193,0-13.655-5.462-13.655-13.655S464.497,389.172,472.69,389.172z"/>
	<path fill="#61CA36" d="M718.483,389.172h54.621c8.193,0,13.655-5.462,13.655-13.655s-5.462-13.655-13.655-13.655h-54.621
		c-8.193,0-13.655,5.462-13.655,13.655S710.29,389.172,718.483,389.172z"/>
	<path fill="#61CA36" d="M827.724,416.483H718.483c-8.193,0-13.655,5.462-13.655,13.655c0,8.193,5.462,13.655,13.655,13.655h109.241
		c8.193,0,13.655-5.462,13.655-13.655S835.917,416.483,827.724,416.483z"/>
	<path fill="#61CA36" d="M773.103,498.414c8.193,0,13.655-5.462,13.655-13.655s-5.462-13.655-13.655-13.655h-54.621
		c-8.193,0-13.655,5.462-13.655,13.655s5.462,13.655,13.655,13.655H773.103z"/>
	<path fill="#61CA36" d="M226.897,361.862c-8.193,0-13.655,5.462-13.655,13.655s5.462,13.655,13.655,13.655h54.621
		c8.193,0,13.655-5.462,13.655-13.655s-5.462-13.655-13.655-13.655H226.897z"/>
	<path fill="#61CA36" d="M172.276,443.793h109.241c8.193,0,13.655-5.462,13.655-13.655s-5.462-13.655-13.655-13.655H172.276
		c-8.193,0-13.655,5.462-13.655,13.655C158.621,438.331,164.083,443.793,172.276,443.793z"/>
	<path fill="#61CA36" d="M281.517,471.103h-54.621c-8.193,0-13.655,5.462-13.655,13.655s5.462,13.655,13.655,13.655h54.621
		c8.193,0,13.655-5.462,13.655-13.655S289.71,471.103,281.517,471.103z"/>
	<path fill="#61CA36" d="M336.138,580.345H172.276c-8.193,0-13.655,5.462-13.655,13.655c0,8.193,5.462,13.655,13.655,13.655h163.862
		c8.193,0,13.655-5.462,13.655-13.655C349.793,585.807,344.331,580.345,336.138,580.345z"/>
	<path fill="#61CA36" d="M827.724,580.345H663.862c-8.193,0-13.655,5.462-13.655,13.655c0,8.193,5.462,13.655,13.655,13.655h163.862
		c8.193,0,13.655-5.462,13.655-13.655C841.379,585.807,835.917,580.345,827.724,580.345z"/>
	<path fill="#61CA36" d="M172.276,279.931h163.862c8.193,0,13.655-5.462,13.655-13.655c0-8.193-5.462-13.655-13.655-13.655H172.276
		c-8.193,0-13.655,5.462-13.655,13.655C158.621,274.469,164.083,279.931,172.276,279.931z"/>
	<path fill="#61CA36" d="M827.724,252.621H663.862c-8.193,0-13.655,5.462-13.655,13.655c0,8.193,5.462,13.655,13.655,13.655h163.862
		c8.193,0,13.655-5.462,13.655-13.655C841.379,258.083,835.917,252.621,827.724,252.621z"/>
</g>
</svg>
