<?xml version="1.0" encoding="utf-8"?>
<!-- Generator: Adobe Illustrator 17.0.1, SVG Export Plug-In . SVG Version: 6.00 Build 0)  -->
<!DOCTYPE svg PUBLIC "-//W3C//DTD SVG 1.1//EN" "http://www.w3.org/Graphics/SVG/1.1/DTD/svg11.dtd">
<svg version="1.1" id="Capa_1" xmlns="http://www.w3.org/2000/svg" xmlns:xlink="http://www.w3.org/1999/xlink" x="0px" y="0px"
	 width="1000px" height="792px" viewBox="0 0 1000 792" enable-background="new 0 0 1000 792" xml:space="preserve">
<rect x="117.655" y="286.759" fill="#F3C969" width="764.69" height="109.241"/>
<g>
	<path fill="#61CA36" d="M773.103,436.966c-38.234,0-68.276,30.041-68.276,68.276s30.041,68.276,68.276,68.276
		c38.234,0,68.276-30.041,68.276-68.276S811.338,436.966,773.103,436.966z M773.103,546.207c-23.214,0-40.966-17.752-40.966-40.966
		c0-23.214,17.752-40.966,40.966-40.966s40.966,17.752,40.966,40.966C814.069,528.455,796.317,546.207,773.103,546.207z"/>
	<path fill="#61CA36" d="M172.276,682.759h655.448c38.234,0,68.276-30.041,68.276-68.276V341.379V232.138v-54.621
		c0-38.234-30.041-68.276-68.276-68.276H172.276c-38.234,0-68.276,30.041-68.276,68.276v54.621v109.241v273.103
		C104,652.717,134.041,682.759,172.276,682.759z M827.724,655.448H172.276c-23.214,0-40.966-17.752-40.966-40.966V355.034H868.69
		v259.448C868.69,637.697,850.938,655.448,827.724,655.448z M131.31,245.793H868.69v81.931H131.31V245.793z M172.276,136.552
		h655.448c23.214,0,40.966,17.752,40.966,40.966v40.966H131.31v-40.966C131.31,154.303,149.062,136.552,172.276,136.552z"/>
	<path fill="#61CA36" d="M226.897,546.207h-54.621c-8.193,0-13.655,5.462-13.655,13.655c0,8.193,5.462,13.655,13.655,13.655h54.621
		c8.193,0,13.655-5.462,13.655-13.655C240.552,551.669,235.09,546.207,226.897,546.207z"/>
	<path fill="#61CA36" d="M336.138,546.207h-54.621c-8.193,0-13.655,5.462-13.655,13.655c0,8.193,5.462,13.655,13.655,13.655h54.621
		c8.193,0,13.655-5.462,13.655-13.655C349.793,551.669,344.331,546.207,336.138,546.207z"/>
	<path fill="#61CA36" d="M445.379,546.207h-54.621c-8.193,0-13.655,5.462-13.655,13.655c0,8.193,5.462,13.655,13.655,13.655h54.621
		c8.193,0,13.655-5.462,13.655-13.655C459.034,551.669,453.572,546.207,445.379,546.207z"/>
	<path fill="#61CA36" d="M554.621,546.207H500c-8.193,0-13.655,5.462-13.655,13.655c0,8.193,5.462,13.655,13.655,13.655h54.621
		c8.193,0,13.655-5.462,13.655-13.655C568.276,551.669,562.814,546.207,554.621,546.207z"/>
	<path fill="#61CA36" d="M172.276,518.897h218.483c8.193,0,13.655-5.462,13.655-13.655c0-8.193-5.462-13.655-13.655-13.655H172.276
		c-8.193,0-13.655,5.462-13.655,13.655C158.621,513.434,164.083,518.897,172.276,518.897z"/>
</g>
</svg>
