<?xml version="1.0" encoding="utf-8"?>
<!-- Generator: Adobe Illustrator 17.0.1, SVG Export Plug-In . SVG Version: 6.00 Build 0)  -->
<!DOCTYPE svg PUBLIC "-//W3C//DTD SVG 1.1//EN" "http://www.w3.org/Graphics/SVG/1.1/DTD/svg11.dtd">
<svg version="1.1" id="Capa_1" xmlns="http://www.w3.org/2000/svg" xmlns:xlink="http://www.w3.org/1999/xlink" x="0px" y="0px"
	 width="1000px" height="792px" viewBox="0 0 1000 792" enable-background="new 0 0 1000 792" xml:space="preserve">
<path fill="#F3C969" d="M500,287.692c-89.354,0-162.462,73.108-162.462,162.462S410.646,612.615,500,612.615
	s162.462-73.108,162.462-162.462C573.108,450.154,500,377.046,500,287.692z"/>
<g>
	<path fill="#61CA36" d="M500,165.846c-203.077,0-370.954,190.892-389.908,212.554c-8.123,9.477-8.123,24.369,0,35.2
		C129.046,435.262,296.923,626.154,500,626.154S870.954,435.262,889.908,413.6c8.123-9.477,8.123-24.369,0-35.2
		C870.954,356.738,703.077,165.846,500,165.846z M189.969,454.215l102.892-102.892c5.415-5.415,5.415-13.538,0-18.954
		s-13.538-5.415-18.954,0L169.662,436.615c-23.015-21.662-36.554-37.908-37.908-40.615C138.523,387.877,306.4,192.923,500,192.923
		c134.031,0,254.523,92.062,319.508,152.985c-13.538,12.185-23.015,31.138-23.015,50.092s8.123,37.908,23.015,50.092
		C754.523,507.015,634.031,599.077,500,599.077C372.738,599.077,256.308,515.138,189.969,454.215z M838.462,427.138
		c-9.477-8.123-14.892-18.954-14.892-31.138s5.415-23.015,14.892-31.138c17.6,17.6,28.431,29.785,29.785,31.138
		C866.892,398.708,856.062,410.892,838.462,427.138z"/>
	<path fill="#61CA36" d="M662.462,382.462c-17.6,0-35.2-2.708-50.092-9.477c-5.415-1.354-9.477-4.062-13.538-5.415
		c0,0-1.354,0-1.354-1.354c-4.062-2.708-8.123-4.062-12.185-6.769c-1.354,0-1.354-1.354-2.708-1.354
		c-4.062-2.708-8.123-5.415-10.831-8.123l-1.354-1.354c-8.123-6.769-16.246-13.538-23.015-23.015l-1.354-1.354
		c-2.708-4.062-5.415-6.769-8.123-10.831c0,0-1.354-1.354-1.354-2.708c-2.708-4.062-5.415-8.123-6.769-12.185
		c0,0,0-1.354-1.354-1.354c-2.708-4.062-4.062-9.477-5.415-13.538c-6.769-14.892-9.477-32.492-9.477-50.092
		c0-8.123-5.415-13.538-13.538-13.538c-48.738,0-92.062,18.954-124.554,51.446l0,0l0,0C342.954,303.938,324,347.262,324,396
		s18.954,92.062,51.446,124.554l0,0l0,0C407.938,551.692,451.262,572,500,572s92.062-18.954,124.554-51.446l0,0l0,0
		C655.692,488.062,676,444.738,676,396C676,387.877,670.585,382.462,662.462,382.462z M594.769,396L594.769,396
		c0,52.8-41.969,94.769-94.769,94.769S405.231,448.8,405.231,396S447.2,301.231,500,301.231l0,0l0,0
		c1.354,5.415,4.062,9.477,6.769,13.538c0,0,0,1.354,1.354,1.354c2.708,4.062,4.062,8.123,6.769,12.185
		c0,1.354,1.354,1.354,1.354,2.708c2.708,4.062,5.415,6.769,8.123,10.831c1.354,1.354,1.354,1.354,2.708,2.708
		c6.769,8.123,14.892,16.246,23.015,23.015c1.354,1.354,1.354,1.354,2.708,2.708c4.062,2.708,6.769,5.415,10.831,8.123
		c1.354,0,1.354,1.354,2.708,1.354c4.062,2.708,8.123,5.415,12.185,6.769c0,0,1.354,0,1.354,1.354
		C585.292,391.938,589.354,393.292,594.769,396L594.769,396z M352.431,409.538h27.077c2.708,23.015,12.185,44.677,25.723,62.277
		l-18.954,18.954C367.323,469.108,355.138,440.677,352.431,409.538z M386.277,301.231l18.954,18.954
		c-13.538,17.6-23.015,39.262-25.723,62.277h-27.077C355.138,351.323,367.323,322.892,386.277,301.231z M424.185,490.769
		c17.6,13.538,39.262,23.015,62.277,25.723v27.077c-31.138-2.708-59.569-14.892-81.231-33.846L424.185,490.769z M513.538,516.492
		c23.015-2.708,44.677-12.185,62.277-25.723l18.954,18.954c-23.015,18.954-50.092,31.138-81.231,33.846V516.492z M491.877,274.154
		c-25.723,1.354-48.738,10.831-67.692,25.723l-18.954-17.6c23.015-18.954,51.446-31.138,82.585-33.846
		C487.815,256.554,489.169,266.031,491.877,274.154z M613.723,490.769l-18.954-18.954c14.892-18.954,24.369-41.969,25.723-67.692
		c8.123,2.708,17.6,4.062,27.077,4.062C646.215,440.677,632.677,469.108,613.723,490.769z"/>
	<path fill="#61CA36" d="M219.754,332.369L165.6,386.523c-5.415,5.415-5.415,13.538,0,18.954c2.708,2.708,5.415,4.062,9.477,4.062
		c4.062,0,6.769-1.354,9.477-4.062l54.154-54.154c5.415-5.415,5.415-13.538,0-18.954
		C233.292,326.954,225.169,326.954,219.754,332.369z"/>
	<path fill="#61CA36" d="M273.908,386.523l-54.154,54.154c-5.415,5.415-5.415,13.538,0,18.954c2.708,2.708,6.769,4.062,9.477,4.062
		s6.769-1.354,9.477-4.062l54.154-54.154c5.415-5.415,5.415-13.538,0-18.954S279.323,381.108,273.908,386.523z"/>
</g>
</svg>
