<?xml version="1.0" encoding="utf-8"?>
<!-- Generator: Adobe Illustrator 17.0.1, SVG Export Plug-In . SVG Version: 6.00 Build 0)  -->
<!DOCTYPE svg PUBLIC "-//W3C//DTD SVG 1.1//EN" "http://www.w3.org/Graphics/SVG/1.1/DTD/svg11.dtd">
<svg version="1.1" id="Capa_1" xmlns="http://www.w3.org/2000/svg" xmlns:xlink="http://www.w3.org/1999/xlink" x="0px" y="0px"
	 width="1000px" height="792px" viewBox="0 0 1000 792" enable-background="new 0 0 1000 792" xml:space="preserve">
<circle fill="#F3C969" cx="500" cy="396" r="109.241"/>
<g>
	<path fill="#61CA36" d="M855.034,54.621H513.655V13.655C513.655,5.462,508.193,0,500,0s-13.655,5.462-13.655,13.655v40.966H144.966
		C121.752,54.621,104,72.372,104,95.586s17.752,40.966,40.966,40.966h13.655v450.621c0,23.214,17.752,40.966,40.966,40.966h267.641
		L330.676,764.69H226.897c-8.193,0-13.655,5.462-13.655,13.655c0,8.193,5.462,13.655,13.655,13.655h546.207
		c8.193,0,13.655-5.462,13.655-13.655c0-8.193-5.462-13.655-13.655-13.655H669.324L532.772,628.138h267.641
		c23.214,0,40.966-17.752,40.966-40.966V136.552h13.655c23.214,0,40.966-17.752,40.966-40.966S878.248,54.621,855.034,54.621z
		 M486.345,647.255V764.69H368.91L486.345,647.255z M513.655,764.69V647.255L631.09,764.69H513.655z M814.069,587.172
		c0,8.193-5.462,13.655-13.655,13.655H199.586c-8.193,0-13.655-5.462-13.655-13.655V136.552h628.138V587.172z M855.034,109.241
		h-27.31H172.276h-27.31c-8.193,0-13.655-5.462-13.655-13.655s5.462-13.655,13.655-13.655h710.069
		c8.193,0,13.655,5.462,13.655,13.655S863.228,109.241,855.034,109.241z"/>
	<path fill="#61CA36" d="M281.517,245.793h49.159l50.524,50.524c1.366,1.366,2.731,1.366,4.097,2.731
		c-5.462,13.655-8.193,27.31-8.193,42.331c0,68.276,54.621,122.897,122.897,122.897c42.331,0,80.566-21.848,102.414-55.986
		l51.89,51.89c2.731,2.731,5.462,4.097,9.559,4.097h54.621c8.193,0,13.655-5.462,13.655-13.655s-5.462-13.655-13.655-13.655h-49.159
		L618.8,386.441c-1.365-1.366-2.731-1.366-4.096-2.731c5.462-13.655,8.193-27.31,8.193-42.331
		c0-68.276-54.621-122.897-122.897-122.897c-42.331,0-80.566,21.848-102.414,55.986l-51.89-51.89
		c-2.731-2.731-5.462-4.097-9.559-4.097h-54.621c-8.193,0-13.655,5.462-13.655,13.655
		C267.862,240.331,273.324,245.793,281.517,245.793z M500,245.793c53.255,0,95.586,42.331,95.586,95.586
		S553.255,436.966,500,436.966s-95.586-42.331-95.586-95.586S446.745,245.793,500,245.793z"/>
	<path fill="#61CA36" d="M226.897,518.897h109.241c8.193,0,13.655-5.462,13.655-13.655c0-8.193-5.462-13.655-13.655-13.655H226.897
		c-8.193,0-13.655,5.462-13.655,13.655C213.241,513.434,218.703,518.897,226.897,518.897z"/>
	<path fill="#61CA36" d="M226.897,573.517h54.621c8.193,0,13.655-5.462,13.655-13.655c0-8.193-5.462-13.655-13.655-13.655h-54.621
		c-8.193,0-13.655,5.462-13.655,13.655C213.241,568.055,218.703,573.517,226.897,573.517z"/>
	<path fill="#61CA36" d="M445.379,546.207H336.138c-8.193,0-13.655,5.462-13.655,13.655c0,8.193,5.462,13.655,13.655,13.655h109.241
		c8.193,0,13.655-5.462,13.655-13.655C459.034,551.669,453.572,546.207,445.379,546.207z"/>
	<path fill="#61CA36" d="M663.862,546.207H500c-8.193,0-13.655,5.462-13.655,13.655c0,8.193,5.462,13.655,13.655,13.655h163.862
		c8.193,0,13.655-5.462,13.655-13.655C677.517,551.669,672.055,546.207,663.862,546.207z"/>
	<path fill="#61CA36" d="M704.828,559.862c0,8.193,5.462,13.655,13.655,13.655h54.621c8.193,0,13.655-5.462,13.655-13.655
		c0-8.193-5.462-13.655-13.655-13.655h-54.621C710.29,546.207,704.828,551.669,704.828,559.862z"/>
	<path fill="#61CA36" d="M435.821,405.559c2.731,2.731,6.828,4.097,9.559,4.097s6.828-1.366,9.559-4.097l109.241-109.241
		c5.462-5.462,5.462-13.655,0-19.117s-13.655-5.462-19.117,0L435.821,386.441C430.359,391.903,430.359,400.097,435.821,405.559z"/>
	<path fill="#61CA36" d="M445.379,355.034c4.097,0,6.828-1.366,9.559-4.097l54.621-54.621c5.462-5.462,5.462-13.655,0-19.117
		s-13.655-5.462-19.117,0l-54.621,54.621c-5.462,5.462-5.462,13.655,0,19.117C438.552,353.669,441.283,355.034,445.379,355.034z"/>
	<path fill="#61CA36" d="M545.062,331.821l-54.621,54.621c-5.462,5.462-5.462,13.655,0,19.117c2.731,2.731,6.828,4.097,9.559,4.097
		s6.828-1.366,9.559-4.097l54.621-54.621c5.462-5.462,5.462-13.655,0-19.117S550.524,326.359,545.062,331.821z"/>
</g>
</svg>
