<svg id="Layer_1" data-name="Layer 1" xmlns="http://www.w3.org/2000/svg" xmlns:xlink="http://www.w3.org/1999/xlink" viewBox="0 0 886.54 276.86"><defs><style>.cls-1{fill:url(#linear-gradient);}.cls-2{fill:url(#linear-gradient-2);}.cls-3{fill:url(#linear-gradient-3);}.cls-4{fill:url(#linear-gradient-4);}.cls-5{fill:#0b2144;}</style><linearGradient id="linear-gradient" x1="209.38" y1="93.41" x2="87.8" y2="303.98" gradientTransform="matrix(1, 0, 0, -1, 0, 402)" gradientUnits="userSpaceOnUse"><stop offset="0" stop-color="#0f8fcf"/><stop offset="1" stop-color="#20376b"/></linearGradient><linearGradient id="linear-gradient-2" x1="52.91" y1="149.26" x2="172.85" y2="149.26" gradientTransform="matrix(1, 0, 0, -1, 0, 402)" gradientUnits="userSpaceOnUse"><stop offset="0" stop-color="#ffcb05"/><stop offset="1" stop-color="#f37021"/></linearGradient><linearGradient id="linear-gradient-3" x1="54.33" y1="127.15" x2="114.55" y2="127.15" gradientTransform="matrix(1, 0, 0, -1, 0, 402)" gradientUnits="userSpaceOnUse"><stop offset="0" stop-color="#ffd400"/><stop offset="1" stop-color="#ffd400" stop-opacity="0"/></linearGradient><linearGradient id="linear-gradient-4" x1="155.46" y1="122.14" x2="155.46" y2="262.41" gradientTransform="matrix(1, 0, 0, -1, 0, 402)" gradientUnits="userSpaceOnUse"><stop offset="0" stop-color="#0f8fcf"/><stop offset="1" stop-color="#0f8fcf" stop-opacity="0"/></linearGradient></defs><title>logo</title><path class="cls-1" d="M133.05,339.09s72.77-25,59.53-84.55c-11.52-51.69-58.88-48.77-85.81-72.47-19.52-17.16-33.26-32.21-29.59-51.39,5.69-29.74,46.1-59.74,83.9-68.45,0,0-35.94,27.23-3.68,54.51S257.76,196.06,231,266.62,133.05,339.09,133.05,339.09Z" transform="translate(-52.91 -62.23)"/><path class="cls-2" d="M172.6,272a47.5,47.5,0,0,1-9.26,33A45.72,45.72,0,0,1,138.88,321c-26.72,7.39-56.21-7.45-72.37-36.44s-18.12-70.66-4.73-102c-2.06,18.17-1.76,37.45,4.33,54S85,266.22,99,265.56c18.52-.85,34.13-24.46,52.5-21.13C162,246.29,171,258.11,172.6,272Z" transform="translate(-52.91 -62.23)"/><path class="cls-3" d="M54.33,230.94S72,287.81,100.48,293.5s4.88,25.26,4.88,25.26S60.87,301.45,54.33,230.94Z" transform="translate(-52.91 -62.23)"/><path class="cls-4" d="M163.9,139.59H91.57s15.76,38.9,61.71,47.76c65.73,12.58,54.81,92.51,54.81,92.51s32.21-67.44-12.33-103.23C157,145.38,163.9,139.59,163.9,139.59Z" transform="translate(-52.91 -62.23)"/><path class="cls-5" d="M311.69,261V182.38h16.67v64.87h31.89V261Z" transform="translate(-52.91 -62.23)"/><path class="cls-5" d="M427.27,230.84q0,14.68-7.75,23T398,262.09a30.14,30.14,0,0,1-15.27-3.79,25.21,25.21,0,0,1-10.16-10.89A36.53,36.53,0,0,1,369,230.84q0-14.73,7.69-22.91t21.62-8.17a30.33,30.33,0,0,1,15.27,3.76,25.2,25.2,0,0,1,10.17,10.81A36.35,36.35,0,0,1,427.27,230.84Zm-41.58,0q0,8.94,2.93,13.5t9.55,4.58q6.56,0,9.44-4.55t2.88-13.53q0-8.93-2.91-13.39T398.06,213q-6.56,0-9.46,4.43T385.69,230.84Z" transform="translate(-52.91 -62.23)"/><path class="cls-5" d="M479,261l-3.18-8.18h-.43a24.29,24.29,0,0,1-8.52,7.24,27.62,27.62,0,0,1-11.43,2q-8.65,0-13.63-4.95t-5-14.09q0-9.57,6.7-14.12t20.19-5l10.44-.33V221q0-9.15-9.36-9.15-7.21,0-16.94,4.36l-5.44-11.08a48.92,48.92,0,0,1,23-5.43q12.1,0,18.56,5.27t6.45,16V261Zm-4.84-27.86-6.35.21q-7.15.23-10.65,2.58a8.12,8.12,0,0,0-3.5,7.21q0,6.94,8,6.94a12.65,12.65,0,0,0,9.12-3.28,11.52,11.52,0,0,0,3.42-8.72Z" transform="translate(-52.91 -62.23)"/><path class="cls-5" d="M562.86,261H546.45V225.9q0-6.51-2.31-9.77t-7.37-3.25q-6.88,0-9.95,4.6t-3.07,15.25V261h-16.4V200.89h12.53l2.21,7.69H523a17.33,17.33,0,0,1,7.56-6.59,25.71,25.71,0,0,1,10.94-2.23q10.5,0,15.92,5.67t5.44,16.38Z" transform="translate(-52.91 -62.23)"/><path class="cls-5" d="M574.42,238.21V224.77H603.3v13.44Z" transform="translate(-52.91 -62.23)"/><path class="cls-5" d="M649.88,195.13q-9.42,0-14.58,7.07t-5.16,19.72q0,26.29,19.74,26.3,8.28,0,20.06-4.14v14a55.68,55.68,0,0,1-21.62,4q-17.16,0-26.25-10.4T613,221.81a48.73,48.73,0,0,1,4.47-21.49,32.22,32.22,0,0,1,12.82-14.14,38,38,0,0,1,19.61-4.92,52.94,52.94,0,0,1,23,5.53l-5.38,13.56a88.4,88.4,0,0,0-8.88-3.66A26.4,26.4,0,0,0,649.88,195.13Z" transform="translate(-52.91 -62.23)"/><path class="cls-5" d="M718.94,199.76a26.76,26.76,0,0,1,5.54.48l-1.24,15.38a18.74,18.74,0,0,0-4.84-.54q-7.86,0-12.24,4t-4.38,11.29V261h-16.4V200.89H697.8L700.22,211H701a22.57,22.57,0,0,1,7.55-8.15A18.68,18.68,0,0,1,718.94,199.76Z" transform="translate(-52.91 -62.23)"/><path class="cls-5" d="M762.61,262.09q-14.52,0-22.7-8t-8.17-22.7q0-15.1,7.55-23.37t20.9-8.25q12.75,0,19.85,7.26t7.09,20.06v8H748.36q.27,7,4.14,10.92t10.86,3.92a44.65,44.65,0,0,0,10.27-1.13,51.28,51.28,0,0,0,10.12-3.6v12.69a38.39,38.39,0,0,1-9.2,3.2A57.88,57.88,0,0,1,762.61,262.09Zm-2.31-50.66a10.39,10.39,0,0,0-8.18,3.31q-3,3.3-3.39,9.38h23q-.11-6.08-3.17-9.38A10.73,10.73,0,0,0,760.3,211.43Z" transform="translate(-52.91 -62.23)"/><path class="cls-5" d="M819.51,262.09q-10.59,0-16.64-8.23t-6-22.8q0-14.79,6.15-23.05t17-8.25q11.35,0,17.32,8.82h.54a66.59,66.59,0,0,1-1.24-12V177.33H853V261H840.43l-3.17-7.8h-.7Q831,262.08,819.51,262.09ZM825.27,249q6.29,0,9.22-3.65t3.2-12.43v-1.77q0-9.69-3-13.88T825,213.1a9.64,9.64,0,0,0-8.53,4.65q-3,4.65-3,13.52t3.07,13.32A10,10,0,0,0,825.27,249Z" transform="translate(-52.91 -62.23)"/><path class="cls-5" d="M869.48,185.34q0-8,8.92-8t8.93,8a7.82,7.82,0,0,1-2.23,5.95q-2.24,2.11-6.7,2.12Q869.48,193.41,869.48,185.34ZM886.58,261h-16.4V200.89h16.4Z" transform="translate(-52.91 -62.23)"/><path class="cls-5" d="M929.12,249a35.41,35.41,0,0,0,10.33-1.88v12.21a36.82,36.82,0,0,1-15.06,2.74q-9.84,0-14.33-5t-4.49-14.93v-29h-7.86v-6.94l9-5.48,4.73-12.69H922v12.8H938.8V213.2H922v29a6.43,6.43,0,0,0,2,5.17A7.75,7.75,0,0,0,929.12,249Z" transform="translate(-52.91 -62.23)"/></svg>