<?xml version="1.0" encoding="utf-8"?>
<!-- Generator: Adobe Illustrator 17.0.1, SVG Export Plug-In . SVG Version: 6.00 Build 0)  -->
<!DOCTYPE svg PUBLIC "-//W3C//DTD SVG 1.1//EN" "http://www.w3.org/Graphics/SVG/1.1/DTD/svg11.dtd">
<svg version="1.1" id="Capa_1" xmlns="http://www.w3.org/2000/svg" xmlns:xlink="http://www.w3.org/1999/xlink" x="0px" y="0px"
	 width="1000px" height="792px" viewBox="0 0 1000 792" enable-background="new 0 0 1000 792" xml:space="preserve">
<g>
	<circle fill="#F3C969" cx="172.276" cy="559.862" r="54.621"/>
	<circle fill="#F3C969" cx="827.724" cy="232.138" r="54.621"/>
	<circle fill="#F3C969" cx="390.759" cy="341.379" r="54.621"/>
	<circle fill="#F3C969" cx="554.621" cy="505.241" r="54.621"/>
</g>
<g>
	<path fill="#61CA36" d="M840.014,110.607c-5.462-31.407-34.138-55.986-66.91-55.986H226.897c-38.234,0-68.276,30.041-68.276,68.276
		v315.434C127.214,445.159,104,472.469,104,505.241s23.214,60.083,54.621,66.91v96.952c0,38.234,30.041,68.276,68.276,68.276
		h546.207c38.234,0,68.276-30.041,68.276-68.276V244.428C872.786,237.6,896,210.29,896,177.517S871.421,116.069,840.014,110.607z
		 M226.897,81.931h546.207c19.117,0,34.138,12.29,39.6,28.676c-30.041,8.193-53.255,34.138-53.255,66.91
		c0,13.655,4.096,27.31,10.924,38.234L592.855,393.269c-10.924-6.828-24.579-10.924-38.234-10.924
		c-13.655,0-27.31,4.097-38.234,10.924l-69.641-69.641c8.193-9.559,12.29-23.214,12.29-36.869c0-38.234-30.041-68.276-68.276-68.276
		s-68.276,30.041-68.276,68.276c0,13.655,4.097,27.31,10.924,38.234L209.145,449.255c-6.828-4.097-15.021-8.193-24.579-9.559v-316.8
		C185.931,99.683,203.683,81.931,226.897,81.931z M554.621,409.655c23.214,0,40.966,17.752,40.966,40.966
		s-17.752,40.966-40.966,40.966s-40.966-17.752-40.966-40.966S531.407,409.655,554.621,409.655z M349.793,286.759
		c0-23.214,17.752-40.965,40.966-40.965c23.214,0,40.966,17.752,40.966,40.965c0,23.214-17.752,40.966-40.966,40.966
		C367.545,327.724,349.793,309.972,349.793,286.759z M131.31,505.241c0-23.214,17.752-40.966,40.966-40.966
		s40.966,17.752,40.966,40.966c0,23.214-17.752,40.966-40.966,40.966S131.31,528.455,131.31,505.241z M786.759,707.338V341.379
		c0-8.193-5.462-13.655-13.655-13.655c-8.193,0-13.655,5.462-13.655,13.655v368.69h-81.931V450.621
		c0-8.193-5.462-13.655-13.655-13.655c-8.193,0-13.655,5.462-13.655,13.655v259.448h-27.31V559.862
		c0-8.193-5.462-13.655-13.655-13.655c-8.193,0-13.655,5.462-13.655,13.655v150.207h-27.31V559.862
		c0-8.193-5.462-13.655-13.655-13.655c-8.193,0-13.655,5.462-13.655,13.655v150.207h-81.931V505.241
		c0-8.193-5.462-13.655-13.655-13.655s-13.655,5.462-13.655,13.655v204.828h-27.31V396c0-8.193-5.462-13.655-13.655-13.655
		c-8.193,0-13.655,5.462-13.655,13.655v314.069h-81.931V505.241c0-8.193-5.462-13.655-13.655-13.655s-13.655,5.462-13.655,13.655
		v204.828h-40.966c-23.214,0-40.966-17.752-40.966-40.966v-96.952c31.407-6.828,54.621-34.138,54.621-66.91
		c0-13.655-4.097-27.31-10.924-38.234L353.89,342.745c9.559,8.193,23.214,12.29,36.869,12.29c13.655,0,27.31-4.097,38.234-10.924
		l69.641,69.641c-8.193,9.559-12.29,23.214-12.29,36.869c0,38.234,30.041,68.276,68.276,68.276
		c38.234,0,68.276-30.041,68.276-68.276c0-13.655-4.097-27.31-10.924-38.234l178.883-178.883c6.828,4.097,15.021,8.193,24.579,9.559
		v426.041C814.069,686.855,803.145,701.876,786.759,707.338z M827.724,218.483c-23.214,0-40.966-17.752-40.966-40.966
		s17.752-40.966,40.966-40.966s40.966,17.752,40.966,40.966S850.938,218.483,827.724,218.483z"/>
	<path fill="#61CA36" d="M336.138,546.207c-8.193,0-13.655,5.462-13.655,13.655v109.241c0,8.193,5.462,13.655,13.655,13.655
		c8.193,0,13.655-5.462,13.655-13.655V559.862C349.793,551.669,344.331,546.207,336.138,546.207z"/>
	<path fill="#61CA36" d="M336.138,436.966c-8.193,0-13.655,5.462-13.655,13.655v54.621c0,8.193,5.462,13.655,13.655,13.655
		c8.193,0,13.655-5.462,13.655-13.655v-54.621C349.793,442.428,344.331,436.966,336.138,436.966z"/>
	<path fill="#61CA36" d="M500,546.207c-8.193,0-13.655,5.462-13.655,13.655v109.241c0,8.193,5.462,13.655,13.655,13.655
		s13.655-5.462,13.655-13.655V559.862C513.655,551.669,508.193,546.207,500,546.207z"/>
	<path fill="#61CA36" d="M718.483,382.345c-8.193,0-13.655,5.462-13.655,13.655v273.103c0,8.193,5.462,13.655,13.655,13.655
		c8.193,0,13.655-5.462,13.655-13.655V396C732.138,387.807,726.676,382.345,718.483,382.345z"/>
	<path fill="#61CA36" d="M226.897,600.828c-8.193,0-13.655,5.462-13.655,13.655v54.621c0,8.193,5.462,13.655,13.655,13.655
		c8.193,0,13.655-5.462,13.655-13.655v-54.621C240.552,606.29,235.09,600.828,226.897,600.828z"/>
</g>
</svg>
