<?xml version="1.0" encoding="utf-8"?>
<!-- Generator: Adobe Illustrator 17.0.1, SVG Export Plug-In . SVG Version: 6.00 Build 0)  -->
<!DOCTYPE svg PUBLIC "-//W3C//DTD SVG 1.1//EN" "http://www.w3.org/Graphics/SVG/1.1/DTD/svg11.dtd">
<svg version="1.1" id="Capa_1" xmlns="http://www.w3.org/2000/svg" xmlns:xlink="http://www.w3.org/1999/xlink" x="0px" y="0px"
	 width="1000px" height="792px" viewBox="0 0 1000 792" enable-background="new 0 0 1000 792" xml:space="preserve">
<path fill="#F3C969" d="M811.607,64.918H188.393c-28.564,0-51.934,23.37-51.934,51.934v623.213c0,28.564,23.37,51.934,51.934,51.934
	h623.213c28.564,0,51.934-23.37,51.934-51.934V116.852C863.541,88.289,840.17,64.918,811.607,64.918z M811.607,714.098
	c0,14.282-11.685,25.967-25.967,25.967H214.361c-14.282,0-25.967-11.685-25.967-25.967V142.82c0-14.282,11.685-25.967,25.967-25.967
	h571.279c14.282,0,25.967,11.685,25.967,25.967V714.098z"/>
<g>
	<path fill="#61CA36" d="M811.607,0H188.393c-36.354,0-64.918,28.564-64.918,64.918v623.213c0,36.354,28.564,64.918,64.918,64.918
		h623.213c36.354,0,64.918-28.564,64.918-64.918V64.918C876.525,28.564,847.961,0,811.607,0z M850.557,688.131
		c0,22.072-16.879,38.951-38.951,38.951H188.393c-22.072,0-38.951-16.879-38.951-38.951V64.918
		c0-22.072,16.879-38.951,38.951-38.951h623.213c22.072,0,38.951,16.879,38.951,38.951V688.131z"/>
	<path fill="#61CA36" d="M664.892,211.633c-5.193-5.193-12.984-5.193-18.177,0L536.354,321.993
		c-10.387-6.492-23.37-10.387-36.354-10.387c-36.354,0-64.918,28.564-64.918,64.918c0,31.161,22.072,57.128,51.934,63.62v40.249
		c0,7.79,5.193,12.984,12.984,12.984s12.984-5.193,12.984-12.984v-40.249c29.862-6.492,51.934-32.459,51.934-63.62
		c0-12.984-3.895-25.967-10.387-36.354L664.892,229.81C670.085,224.616,670.085,216.826,664.892,211.633z M461.049,376.525
		c0-22.072,16.879-38.951,38.951-38.951c6.492,0,11.685,1.298,16.879,3.895l-25.967,25.967c-2.597,2.597-3.895,5.193-3.895,9.089
		v36.354C471.436,407.685,461.049,393.403,461.049,376.525z M538.951,376.525c0,16.879-10.387,31.161-25.967,36.354v-31.161
		l22.072-22.072C537.652,364.839,538.951,370.033,538.951,376.525z"/>
	<circle fill="#61CA36" cx="253.311" cy="129.836" r="25.967"/>
	<circle fill="#61CA36" cx="500" cy="129.836" r="25.967"/>
	<circle fill="#61CA36" cx="746.689" cy="129.836" r="25.967"/>
	<circle fill="#61CA36" cx="253.311" cy="623.213" r="25.967"/>
	<circle fill="#61CA36" cx="500" cy="623.213" r="25.967"/>
	<circle fill="#61CA36" cx="746.689" cy="623.213" r="25.967"/>
	<circle fill="#61CA36" cx="746.689" cy="376.525" r="25.967"/>
	<circle fill="#61CA36" cx="253.311" cy="376.525" r="25.967"/>
	<path fill="#61CA36" d="M405.22,471.305c-5.193-5.193-12.984-5.193-18.177,0L283.174,575.174c-5.193,5.193-5.193,12.984,0,18.177
		c2.597,2.597,6.492,3.895,9.089,3.895s6.492-1.298,9.089-3.895L405.22,489.482C410.413,484.289,410.413,476.498,405.22,471.305z"/>
	<path fill="#61CA36" d="M387.043,523.239l-51.934,51.934c-5.193,5.193-5.193,12.984,0,18.177c2.597,2.597,6.492,3.895,9.089,3.895
		s6.492-1.298,9.089-3.895l51.934-51.934c5.193-5.193,5.193-12.984,0-18.177C400.026,518.046,392.236,518.046,387.043,523.239z"/>
	<path fill="#61CA36" d="M283.174,541.416c2.597,2.597,6.492,3.895,9.089,3.895s6.492-1.298,9.089-3.895l51.934-51.934
		c5.193-5.193,5.193-12.984,0-18.177c-5.193-5.193-12.984-5.193-18.177,0l-51.934,51.934
		C277.98,528.433,277.98,536.223,283.174,541.416z"/>
	<path fill="#61CA36" d="M188.393,441.443c7.79,0,12.984-5.193,12.984-12.984V90.885c0-7.79,5.193-12.984,12.984-12.984h389.508
		c7.79,0,12.984-5.193,12.984-12.984s-5.193-12.984-12.984-12.984H214.361c-22.072,0-38.951,16.879-38.951,38.951v337.574
		C175.41,436.249,180.603,441.443,188.393,441.443z"/>
	<path fill="#61CA36" d="M785.639,51.934H655.803c-7.79,0-12.984,5.193-12.984,12.984s5.193,12.984,12.984,12.984h129.836
		c7.79,0,12.984,5.193,12.984,12.984v571.279c0,7.79-5.193,12.984-12.984,12.984H214.361c-7.79,0-12.984-5.193-12.984-12.984
		V480.393c0-7.79-5.193-12.984-12.984-12.984c-7.79,0-12.984,5.193-12.984,12.984v181.771c0,22.072,16.879,38.951,38.951,38.951
		h571.279c22.072,0,38.951-16.879,38.951-38.951V90.885C824.59,68.813,807.711,51.934,785.639,51.934z"/>
	<path fill="#61CA36" d="M435.082,220.721c0,7.79,5.193,12.984,12.984,12.984h103.869c7.79,0,12.984-5.193,12.984-12.984
		c0-7.79-5.193-12.984-12.984-12.984H448.066C440.275,207.738,435.082,212.931,435.082,220.721z"/>
</g>
</svg>
