<?xml version="1.0" encoding="utf-8"?>
<!-- Generator: Adobe Illustrator 17.0.1, SVG Export Plug-In . SVG Version: 6.00 Build 0)  -->
<!DOCTYPE svg PUBLIC "-//W3C//DTD SVG 1.1//EN" "http://www.w3.org/Graphics/SVG/1.1/DTD/svg11.dtd">
<svg version="1.1" id="Capa_1" xmlns="http://www.w3.org/2000/svg" xmlns:xlink="http://www.w3.org/1999/xlink" x="0px" y="0px"
	 width="1000px" height="792px" viewBox="0 0 1000 792" enable-background="new 0 0 1000 792" xml:space="preserve">
<path fill="#F3C969" d="M607.588,449.794c28.517-23.332,47.961-59.627,47.961-99.81V90.737c0-14.259-11.666-25.925-25.925-25.925
	H370.376c-14.259,0-25.925,11.666-25.925,25.925v259.247c0,40.183,18.147,76.478,47.961,99.81
	c34.998,29.813,55.738,73.885,55.738,120.55v1.296c0,60.923-27.221,117.957-72.589,158.141
	c-19.444,16.851-31.11,38.887-31.11,62.219h311.097c0-23.332-11.666-45.368-31.11-62.219
	c-45.368-40.183-72.589-97.218-72.589-158.141v-1.296C551.849,523.679,572.589,479.607,607.588,449.794z"/>
<g>
	<path fill="#61CA36" d="M616.661,408.314c33.702-27.221,51.849-67.404,51.849-110.18v-14.259
		c58.331-6.481,103.699-55.738,103.699-115.365S726.841,59.627,668.511,53.146V38.887C668.511,16.851,651.66,0,629.624,0H370.376
		c-22.036,0-38.887,16.851-38.887,38.887v14.259c-58.331,6.481-103.699,55.738-103.699,115.365s45.368,108.884,103.699,115.365
		v14.259c0,42.776,19.444,82.959,51.849,110.18c32.406,27.221,51.849,66.108,51.849,110.18c0,55.738-24.628,108.884-68.701,147.771
		c-19.444,16.851-31.11,37.591-33.702,58.331h-92.033c-7.777,0-12.962,5.185-12.962,12.962s5.185,12.962,12.962,12.962h103.699
		h311.097h103.699c7.777,0,12.962-5.185,12.962-12.962s-5.185-12.962-12.962-12.962h-92.033
		c-3.889-22.036-15.555-41.48-33.702-58.331c-44.072-38.887-68.701-92.033-68.701-149.067
		C564.812,475.719,582.959,435.535,616.661,408.314z M746.285,168.511c0,45.368-33.702,82.959-77.774,89.44V79.07
		C712.583,85.552,746.285,123.142,746.285,168.511z M253.715,168.511c0-45.368,33.702-82.959,77.774-89.44v180.177
		C287.417,251.47,253.715,213.879,253.715,168.511z M538.887,519.791c0,57.034,23.332,112.773,64.812,154.252H500
		c-7.777,0-12.962,5.185-12.962,12.962s5.185,12.962,12.962,12.962h128.327c5.185,7.777,10.37,15.555,12.962,25.925H358.71
		c2.592-10.37,7.777-18.147,12.962-25.925h76.478c7.777,0,12.962-5.185,12.962-12.962s-5.185-12.962-12.962-12.962h-51.849
		c41.48-42.776,64.812-97.218,64.812-155.548c0-50.553-22.036-98.514-60.923-129.624c-27.221-22.036-42.776-55.738-42.776-90.737
		V272.21V64.812V38.887c0-7.777,5.185-12.962,12.962-12.962h259.247c7.777,0,12.962,5.185,12.962,12.962v25.925V272.21v25.925
		c0,34.998-15.555,68.701-42.776,90.737C560.923,419.98,538.887,467.941,538.887,519.791z"/>
	<path fill="#61CA36" d="M500,466.645c-7.777,0-12.962,5.185-12.962,12.962v51.849c0,7.777,5.185,12.962,12.962,12.962
		c7.777,0,12.962-5.185,12.962-12.962v-51.849C512.962,471.83,507.777,466.645,500,466.645z"/>
	<path fill="#61CA36" d="M542.776,107.588L439.077,211.286c-5.185,5.185-5.185,12.962,0,18.147c2.592,2.592,6.481,3.889,9.074,3.889
		c2.592,0,6.481-1.296,9.074-3.889l103.699-103.699c5.185-5.185,5.185-12.962,0-18.147
		C555.738,102.403,547.961,102.403,542.776,107.588z"/>
	<path fill="#61CA36" d="M448.151,181.473c3.889,0,6.481-1.296,9.074-3.889l51.849-51.849c5.185-5.185,5.185-12.962,0-18.147
		s-12.962-5.185-18.147,0l-51.849,51.849c-5.185,5.185-5.185,12.962,0,18.147C441.669,180.177,444.262,181.473,448.151,181.473z"/>
	<path fill="#61CA36" d="M542.776,159.437l-51.849,51.849c-5.185,5.185-5.185,12.962,0,18.147c2.592,2.592,6.481,3.889,9.074,3.889
		c2.592,0,6.481-1.296,9.074-3.889l51.849-51.849c5.185-5.185,5.185-12.962,0-18.147
		C555.738,154.252,547.961,154.252,542.776,159.437z"/>
</g>
</svg>
