<?xml version="1.0" encoding="utf-8"?>
<!-- Generator: Adobe Illustrator 17.0.1, SVG Export Plug-In . SVG Version: 6.00 Build 0)  -->
<!DOCTYPE svg PUBLIC "-//W3C//DTD SVG 1.1//EN" "http://www.w3.org/Graphics/SVG/1.1/DTD/svg11.dtd">
<svg version="1.1" id="Capa_1" xmlns="http://www.w3.org/2000/svg" xmlns:xlink="http://www.w3.org/1999/xlink" x="0px" y="0px"
	 width="1000px" height="792px" viewBox="0 0 1000 792" enable-background="new 0 0 1000 792" xml:space="preserve">
<circle fill="#F3C969" cx="663.898" cy="286.776" r="218.449"/>
<g>
	<path fill="#61CA36" d="M875.52,522.973c-19.114-20.48-51.882-20.48-70.996,0c-15.018,16.384-32.767,25.941-53.247,31.402
		l-180.22,32.767c2.731-8.192,2.731-16.384,1.365-24.575c-2.731-16.384-12.288-30.037-25.941-36.863l-111.955-64.169
		c-27.306-15.018-60.073-16.384-87.38-1.365l-87.38,45.055l-19.114-57.343c-2.731-6.827-8.192-10.922-13.653-10.922H117.776
		c-4.096,0-8.192,2.731-10.922,5.461c-2.731,4.096-4.096,8.192-1.365,12.288l109.224,327.673c1.365,5.461,6.827,9.557,12.288,9.557
		h109.224c4.096,0,8.192-2.731,10.922-5.461c2.731-4.096,2.731-8.192,1.365-12.288l-30.037-91.475h8.192l151.549,53.247
		c1.365,0,2.731,1.365,4.096,1.365s1.365,0,2.731,0l199.335-35.498c72.361-13.653,139.261-49.151,191.143-105.129
		C893.269,576.22,893.269,543.453,875.52,522.973z M236.557,764.633L136.89,464.265h80.553l99.667,300.367H236.557z
		 M855.041,577.586c-47.786,51.882-109.224,84.649-176.124,96.937L483.678,710.02l-150.184-53.247c-1.365,0-2.731-1.365-4.096-1.365
		h-19.114L267.96,529.8c0,0,0,0,1.365,0l91.475-46.42c19.114-9.557,42.324-9.557,61.439,1.365l111.955,64.169
		c6.826,4.096,10.922,9.557,12.288,17.749c1.365,8.192-1.365,16.384-6.826,21.845c-2.731,2.731-5.461,4.096-8.192,5.461
		l-8.192,1.365c-1.365,0-4.096,0-5.461-1.365l-132.435-46.42c-6.827-2.731-15.018,1.365-17.749,8.192
		c-2.731,6.827,1.365,15.018,8.192,17.749l132.435,46.42c5.461,1.365,10.922,2.731,16.384,2.731c1.365,0,1.365,0,2.731,0l0,0h1.365
		c2.731,0,5.461-1.365,8.192-1.365l219.814-39.594c25.941-5.461,49.151-19.114,68.265-38.229c8.192-9.557,23.21-9.557,31.402,0
		C864.598,551.645,864.598,568.029,855.041,577.586z"/>
	<path fill="#61CA36" d="M663.898,0.061c-128.339,0-232.102,103.763-232.102,232.102s103.763,232.102,232.102,232.102
		S896,360.502,896,232.163S792.237,0.061,663.898,0.061z M663.898,436.959c-113.32,0-204.796-91.475-204.796-204.796
		S550.578,27.368,663.898,27.368s204.796,91.475,204.796,204.796S777.218,436.959,663.898,436.959z"/>
	<path fill="#61CA36" d="M663.898,54.674c-98.302,0-177.49,79.188-177.49,177.49s79.188,177.49,177.49,177.49
		s177.49-79.188,177.49-177.49S762.2,54.674,663.898,54.674z M663.898,382.347c-83.284,0-150.184-66.9-150.184-150.184
		S580.615,81.98,663.898,81.98s150.184,66.9,150.184,150.184S747.182,382.347,663.898,382.347z"/>
	<path fill="#61CA36" d="M708.953,167.994L599.729,277.218c-5.461,5.461-5.461,13.653,0,19.114c2.731,2.731,6.827,4.096,9.557,4.096
		c2.731,0,6.827-1.365,9.557-4.096l109.224-109.224c5.461-5.461,5.461-13.653,0-19.114
		C722.606,162.533,714.414,162.533,708.953,167.994z"/>
	<path fill="#61CA36" d="M609.286,245.816c4.096,0,6.827-1.365,9.557-4.096l54.612-54.612c5.461-5.461,5.461-13.653,0-19.114
		c-5.461-5.461-13.653-5.461-19.114,0l-54.612,54.612c-5.461,5.461-5.461,13.653,0,19.114
		C602.459,244.451,605.19,245.816,609.286,245.816z"/>
	<path fill="#61CA36" d="M708.953,222.606l-54.612,54.612c-5.461,5.461-5.461,13.653,0,19.114c2.731,2.731,6.827,4.096,9.557,4.096
		c2.731,0,6.827-1.365,9.557-4.096l54.612-54.612c5.461-5.461,5.461-13.653,0-19.114
		C722.606,217.145,714.414,217.145,708.953,222.606z"/>
	<circle fill="#61CA36" cx="267.96" cy="723.673" r="13.653"/>
</g>
</svg>
