<?xml version="1.0" encoding="utf-8"?>
<!-- Generator: Adobe Illustrator 17.0.1, SVG Export Plug-In . SVG Version: 6.00 Build 0)  -->
<!DOCTYPE svg PUBLIC "-//W3C//DTD SVG 1.1//EN" "http://www.w3.org/Graphics/SVG/1.1/DTD/svg11.dtd">
<svg version="1.1" id="Capa_1" xmlns="http://www.w3.org/2000/svg" xmlns:xlink="http://www.w3.org/1999/xlink" x="0px" y="0px"
	 width="1000px" height="792px" viewBox="0 0 1000 792" enable-background="new 0 0 1000 792" xml:space="preserve">
<path fill="#F3C969" d="M554.621,95.586L500,150.207l-54.621-54.621L172.276,368.69h151.572
	c30.041-27.31,73.738-54.621,121.531-54.621s92.855,27.31,121.531,54.621h151.572h109.241L554.621,95.586z"/>
<g>
	<path fill="#61CA36" d="M732.138,532.552c0-23.214-17.752-40.965-40.966-40.965s-40.966,17.752-40.966,40.965
		c0,23.214,17.752,40.966,40.966,40.966S732.138,555.766,732.138,532.552z M691.172,546.207c-8.193,0-13.655-5.462-13.655-13.655
		c0-8.193,5.462-13.655,13.655-13.655c8.193,0,13.655,5.462,13.655,13.655C704.828,540.745,699.365,546.207,691.172,546.207z"/>
	<path fill="#61CA36" d="M827.724,191.172H723.945L564.179,31.407c-5.462-5.462-13.655-5.462-19.117,0L500,76.469l-45.062-45.062
		c-5.462-5.462-13.655-5.462-19.117,0L276.055,191.172H172.276c-38.234,0-68.276,30.041-68.276,68.276v436.966
		c0,38.234,30.041,68.276,68.276,68.276h655.448c38.234,0,68.276-30.041,68.276-68.276V259.448
		C896,221.214,865.959,191.172,827.724,191.172z M827.724,218.483c23.214,0,40.966,17.752,40.966,40.966
		c0,20.483-15.021,38.234-35.503,40.966l-81.931-81.931H827.724z M554.621,60.083l154.303,154.303l0,0l86.028,86.028h-71.007
		L519.117,95.586L554.621,60.083z M445.379,60.083l45.062,45.062L685.71,300.414H572.372
		c-24.579-21.848-72.372-54.621-126.993-54.621c-55.986,0-102.414,32.772-126.993,54.621H205.048l86.028-86.028l0,0L445.379,60.083z
		 M527.31,300.414H363.448c21.848-13.655,50.524-27.31,81.931-27.31S505.462,286.759,527.31,300.414z M172.276,218.483h76.469
		l-81.931,81.931c-20.483-2.731-35.503-20.483-35.503-40.966C131.31,236.234,149.062,218.483,172.276,218.483z M827.724,737.379
		H172.276c-23.214,0-40.966-17.752-40.966-40.966V314.069c10.924,8.193,25.945,13.655,40.966,13.655h151.572h244.428h150.207
		h109.241c15.021,0,30.041-5.462,40.966-13.655v259.448H691.172h-21.848l-40.966-40.966l40.966-40.965h21.848h136.552
		c8.193,0,13.655-5.462,13.655-13.655s-5.462-13.655-13.655-13.655H663.862c-4.097,0-6.828,1.366-9.559,4.097l-54.621,54.621
		c-5.462,5.462-5.462,13.655,0,19.117l54.621,54.621c2.731,2.731,5.462,4.097,9.559,4.097H868.69v95.586
		C868.69,719.628,850.938,737.379,827.724,737.379z"/>
	<path fill="#61CA36" d="M435.821,468.372L326.579,577.614c-5.462,5.462-5.462,13.655,0,19.117c2.731,2.731,6.828,4.097,9.559,4.097
		s6.828-1.365,9.559-4.097L454.938,487.49c5.462-5.462,5.462-13.655,0-19.117C449.476,462.91,441.283,462.91,435.821,468.372z"/>
	<path fill="#61CA36" d="M336.138,546.207c4.097,0,6.828-1.366,9.559-4.097l54.621-54.621c5.462-5.462,5.462-13.655,0-19.117
		s-13.655-5.462-19.117,0l-54.621,54.621c-5.462,5.462-5.462,13.655,0,19.117C329.31,544.841,332.041,546.207,336.138,546.207z"/>
	<path fill="#61CA36" d="M435.821,522.993L381.2,577.614c-5.462,5.462-5.462,13.655,0,19.117c2.731,2.731,6.828,4.097,9.559,4.097
		c2.731,0,6.828-1.365,9.559-4.097l54.621-54.621c5.462-5.462,5.462-13.655,0-19.117
		C449.476,517.531,441.283,517.531,435.821,522.993z"/>
	<path fill="#61CA36" d="M226.897,682.759c-12.29,0-23.214-4.097-30.041-10.924c-10.924-10.924-10.924-30.041-10.924-30.041
		c0-6.828-5.462-13.655-13.655-13.655c-6.828,0-13.655,5.462-13.655,13.655c0,1.365,0,30.041,19.117,50.524
		c12.29,10.924,28.676,17.752,49.159,17.752c8.193,0,13.655-5.462,13.655-13.655C240.552,688.221,235.09,682.759,226.897,682.759z"
		/>
</g>
</svg>
