<?xml version="1.0" encoding="utf-8"?>
<!-- Generator: Adobe Illustrator 17.0.1, SVG Export Plug-In . SVG Version: 6.00 Build 0)  -->
<!DOCTYPE svg PUBLIC "-//W3C//DTD SVG 1.1//EN" "http://www.w3.org/Graphics/SVG/1.1/DTD/svg11.dtd">
<svg version="1.1" id="Capa_1" xmlns="http://www.w3.org/2000/svg" xmlns:xlink="http://www.w3.org/1999/xlink" x="0px" y="0px"
	 width="1000px" height="792px" viewBox="0 0 1000 792" enable-background="new 0 0 1000 792" xml:space="preserve">
<path fill="#F3C969" d="M691.172,122.897c15.021,0,27.31-12.29,27.31-27.31s-12.29-27.31-27.31-27.31H308.828
	c-15.021,0-27.31,12.29-27.31,27.31c0,15.021,12.29,27.31,27.31,27.31h27.31L172.276,341.379c0,30.041,24.579,54.621,54.621,54.621
	s54.621-24.579,54.621-54.621c0,30.041,24.579,54.621,54.621,54.621s54.621-24.579,54.621-54.621
	c0,30.041,24.579,54.621,54.621,54.621S500,371.421,500,341.379C500,371.421,524.579,396,554.621,396s54.621-24.579,54.621-54.621
	c0,30.041,24.579,54.621,54.621,54.621s54.621-24.579,54.621-54.621c0,30.041,24.579,54.621,54.621,54.621
	s54.621-24.579,54.621-54.621L663.862,122.897H691.172z"/>
<g>
	<path fill="#61CA36" d="M144.966,792h710.069C878.248,792,896,774.248,896,751.034s-17.752-40.966-40.966-40.966h-68.276v-356.4
		c30.041-6.828,53.255-32.772,54.621-64.179l0,0v-1.366v-1.366c0-1.366,0-1.366,0-2.731c0-1.366-1.366-1.366-1.366-2.731v-1.366
		l-148.841-198l0,0c23.214,0,40.966-17.752,40.966-40.966S714.386,0,691.172,0H308.828c-23.214,0-40.966,17.752-40.966,40.966
		s17.752,40.966,40.966,40.966l0,0L161.352,278.566c0,1.366-1.366,1.366-1.366,2.731c0,0,0,0,0,1.366
		c-1.366,0-1.366,1.366-1.366,4.097l0,0c0,1.366,0,1.366,0,2.731l0,0c1.366,31.407,24.579,58.717,54.621,64.179v356.4h-68.276
		c-23.214,0-40.966,17.752-40.966,40.966S121.752,792,144.966,792z M295.172,40.966c0-8.193,5.462-13.655,13.655-13.655h382.345
		c8.193,0,13.655,5.462,13.655,13.655s-5.462,13.655-13.655,13.655h-27.31h-1.365c-1.365,0-1.365,0-2.731,0
		c-1.365,0-1.365,1.366-2.731,1.366h-1.365c0,0,0,0,0,1.366c-1.366,0-1.366,1.366-1.366,2.731l-1.365,1.366
		c0,1.366,0,1.366-1.365,2.731c0,1.366,0,1.366,0,2.731c0,0,0,0,0,1.366v1.366c0,1.366,0,1.366,0,2.731s1.365,1.366,1.365,2.731
		v1.366l161.131,214.386c-1.365,20.483-19.117,36.869-40.966,36.869c-17.752,0-32.772-10.924-38.234-27.31h38.234
		c8.193,0,13.655-5.462,13.655-13.655c0-8.193-5.462-13.655-13.655-13.655h-46.428L621.531,62.814
		c-2.731-5.462-6.828-8.193-12.29-8.193h-54.621l0,0H308.828C300.634,54.621,295.172,49.159,295.172,40.966z M427.628,81.931
		l-47.793,191.172h-76.469l95.586-191.172H427.628z M374.372,300.414c-5.462,16.386-20.483,27.31-38.234,27.31
		s-32.772-10.924-38.234-27.31H374.372z M445.379,273.103H408.51l47.793-191.172h30.041v204.828
		c0,23.214-17.752,40.966-40.966,40.966c-17.752,0-32.772-10.924-38.234-27.31h38.234c8.193,0,13.655-5.462,13.655-13.655
		C459.034,278.566,453.572,273.103,445.379,273.103z M554.621,273.103h-40.966V81.931h30.041l51.89,206.193
		c0,21.848-19.117,39.6-40.966,39.6c-17.752,0-32.772-10.924-38.234-27.31h38.234c8.193,0,13.655-5.462,13.655-13.655
		C568.276,278.566,562.814,273.103,554.621,273.103z M620.166,273.103L572.372,81.931h28.676l95.586,191.172H620.166z
		 M702.097,300.414c-5.462,16.386-20.483,27.31-38.234,27.31s-32.772-10.924-38.234-27.31H702.097z M188.662,300.414h38.234
		c8.193,0,13.655-5.462,13.655-13.655c0-8.193-5.462-13.655-13.655-13.655h-27.31L342.966,81.931h25.945l-99.683,199.366l0,0
		c-1.366,1.366-1.366,2.731-1.366,5.462c0,23.214-17.752,40.966-40.966,40.966C209.145,327.724,194.124,316.8,188.662,300.414z
		 M240.552,353.669c16.386-4.097,31.407-13.655,40.966-25.945c12.29,16.386,32.772,27.31,54.621,27.31
		c21.848,0,42.331-10.924,54.621-27.31c12.29,16.386,32.772,27.31,54.621,27.31c21.848,0,42.331-10.924,54.621-27.31
		c12.29,16.386,32.772,27.31,54.621,27.31s42.331-10.924,54.621-27.31c12.29,16.386,32.772,27.31,54.621,27.31
		s42.331-10.924,54.621-27.31c9.559,13.655,24.579,23.214,40.966,25.945v356.4H240.552V353.669z M144.966,737.379h710.069
		c8.193,0,13.655,5.462,13.655,13.655c0,8.193-5.462,13.655-13.655,13.655H144.966c-8.193,0-13.655-5.462-13.655-13.655
		C131.31,742.841,136.772,737.379,144.966,737.379z"/>
	<path fill="#61CA36" d="M445.379,382.345H281.517c-8.193,0-13.655,5.462-13.655,13.655v273.103c0,8.193,5.462,13.655,13.655,13.655
		h163.862c8.193,0,13.655-5.462,13.655-13.655V396C459.034,387.807,453.572,382.345,445.379,382.345z M431.724,655.448H295.172
		V409.655h136.552V655.448z"/>
	<path fill="#61CA36" d="M718.483,382.345H500c-8.193,0-13.655,5.462-13.655,13.655v218.483c0,8.193,5.462,13.655,13.655,13.655
		h218.483c8.193,0,13.655-5.462,13.655-13.655V396C732.138,387.807,726.676,382.345,718.483,382.345z M704.828,600.828H513.655
		V409.655h191.172V600.828z"/>
	<path fill="#61CA36" d="M554.621,573.517c4.097,0,6.828-1.365,9.559-4.096l109.241-109.241c5.462-5.462,5.462-13.655,0-19.117
		c-5.462-5.462-13.655-5.462-19.117,0L545.062,550.303c-5.462,5.462-5.462,13.655,0,19.117
		C547.793,572.152,550.524,573.517,554.621,573.517z"/>
	<path fill="#61CA36" d="M554.621,518.897c4.097,0,6.828-1.365,9.559-4.097l54.621-54.621c5.462-5.462,5.462-13.655,0-19.117
		c-5.462-5.462-13.655-5.462-19.117,0l-54.621,54.621c-5.462,5.462-5.462,13.655,0,19.117
		C547.793,517.531,550.524,518.897,554.621,518.897z"/>
	<path fill="#61CA36" d="M654.303,495.683l-54.621,54.621c-5.462,5.462-5.462,13.655,0,19.117c2.731,2.731,6.828,4.096,9.559,4.096
		c2.731,0,6.828-1.365,9.559-4.096l54.621-54.621c5.462-5.462,5.462-13.655,0-19.117S659.766,490.221,654.303,495.683z"/>
	<circle fill="#61CA36" cx="390.759" cy="505.241" r="27.31"/>
	<path fill="#61CA36" d="M663.862,655.448H554.621c-8.193,0-13.655,5.462-13.655,13.655c0,8.193,5.462,13.655,13.655,13.655h109.241
		c8.193,0,13.655-5.462,13.655-13.655C677.517,660.91,672.055,655.448,663.862,655.448z"/>
</g>
</svg>
