<?xml version="1.0" encoding="UTF-8" standalone="no"?>
<!DOCTYPE svg PUBLIC "-//W3C//DTD SVG 1.1//EN"
"http://www.w3.org/Graphics/SVG/1.1/DTD/svg11.dtd">


<!-- Page 1 -->
<svg x="0" y="0" width="2200" height="3208" viewBox="0 0 2200 3208" version="1.1" xmlns="http://www.w3.org/2000/svg" xmlns:xlink="http://www.w3.org/1999/xlink"
style="display: block;margin-left: auto;margin-right: auto;">
<path d="M0,0
L0,3208
L2200,3208
L2200,0 Z " 
fill="#FFFFFF" stroke="none" />
<image preserveAspectRatio="none" x="0" y="0" width="2200" height="3208" xlink:href="1/img/1.png" />
<image preserveAspectRatio="none" x="0" y="0" width="2200" height="3208" xlink:href="1/img/2.png" />
<image preserveAspectRatio="none" x="0" y="0" width="2200" height="3208" xlink:href="1/img/3.png" />
<image preserveAspectRatio="none" x="0" y="0" width="2200" height="3208" xlink:href="1/img/4.png" />
<image preserveAspectRatio="none" x="0" y="0" width="2200" height="3208" xlink:href="1/img/5.png" />
<image preserveAspectRatio="none" x="0" y="0" width="2200" height="3208" xlink:href="1/img/6.png" />
<image preserveAspectRatio="none" x="0" y="0" width="2200" height="3208" xlink:href="1/img/7.png" />
<image preserveAspectRatio="none" x="0" y="0" width="2200" height="3208" xlink:href="1/img/8.png" />
<image preserveAspectRatio="none" x="0" y="0" width="2200" height="3208" xlink:href="1/img/9.png" />
<image preserveAspectRatio="none" x="0" y="0" width="2200" height="3208" xlink:href="1/img/10.png" />
<image preserveAspectRatio="none" x="0" y="0" width="2200" height="3208" xlink:href="1/img/11.png" />
<image preserveAspectRatio="none" x="0" y="0" width="2200" height="3208" xlink:href="1/img/12.png" />
<image preserveAspectRatio="none" x="0" y="0" width="2200" height="3208" xlink:href="1/img/13.png" />
<image preserveAspectRatio="none" x="0" y="0" width="2200" height="3208" xlink:href="1/img/14.png" />
<image preserveAspectRatio="none" x="0" y="0" width="2200" height="3208" xlink:href="1/img/15.png" />
<image preserveAspectRatio="none" x="0" y="0" width="2200" height="3208" xlink:href="1/img/16.png" />
<image preserveAspectRatio="none" x="0" y="0" width="2200" height="3208" xlink:href="1/img/17.png" />
<image preserveAspectRatio="none" x="0" y="0" width="2200" height="3208" xlink:href="1/img/18.png" />
<image preserveAspectRatio="none" x="0" y="0" width="2200" height="3208" xlink:href="1/img/19.png" />
<image preserveAspectRatio="none" x="0" y="0" width="2200" height="3208" xlink:href="1/img/20.png" />
<image preserveAspectRatio="none" x="0" y="0" width="2200" height="3208" xlink:href="1/img/21.png" />
<image preserveAspectRatio="none" x="0" y="0" width="2200" height="3208" xlink:href="1/img/22.png" />
<image preserveAspectRatio="none" x="0" y="0" width="2200" height="3208" xlink:href="1/img/23.png" />
<image preserveAspectRatio="none" x="0" y="0" width="2200" height="3208" xlink:href="1/img/24.png" />
<image preserveAspectRatio="none" x="0" y="0" width="2200" height="3208" xlink:href="1/img/25.png" />
<image preserveAspectRatio="none" x="0" y="0" width="2200" height="3208" xlink:href="1/img/26.png" />
<image preserveAspectRatio="none" x="0" y="0" width="2200" height="3208" xlink:href="1/img/27.png" />
<image preserveAspectRatio="none" x="0" y="0" width="2200" height="3208" xlink:href="1/img/28.png" />
<image preserveAspectRatio="none" x="0" y="0" width="2200" height="3208" xlink:href="1/img/29.png" />
<image preserveAspectRatio="none" x="0" y="0" width="2200" height="3208" xlink:href="1/img/30.png" />
<image preserveAspectRatio="none" x="0" y="0" width="2200" height="3208" xlink:href="1/img/31.png" />
<image preserveAspectRatio="none" x="0" y="0" width="2200" height="3208" xlink:href="1/img/32.png" />
<image preserveAspectRatio="none" x="0" y="0" width="2200" height="3208" xlink:href="1/img/33.png" />
<image preserveAspectRatio="none" x="0" y="0" width="2200" height="3208" xlink:href="1/img/34.png" />
<image preserveAspectRatio="none" x="0" y="0" width="2200" height="3208" xlink:href="1/img/35.png" />
<image preserveAspectRatio="none" x="0" y="0" width="2200" height="3208" xlink:href="1/img/36.png" />
<image preserveAspectRatio="none" x="0" y="0" width="2200" height="3208" xlink:href="1/img/37.png" />
<image preserveAspectRatio="none" x="0" y="0" width="2200" height="3208" xlink:href="1/img/38.png" />
<image preserveAspectRatio="none" x="0" y="0" width="2200" height="3208" xlink:href="1/img/39.png" />
<image preserveAspectRatio="none" x="0" y="0" width="2200" height="3208" xlink:href="1/img/40.png" />
<image preserveAspectRatio="none" x="0" y="0" width="2200" height="3208" xlink:href="1/img/41.png" />
<image preserveAspectRatio="none" x="0" y="0" width="2200" height="3208" xlink:href="1/img/42.png" />
<image preserveAspectRatio="none" x="0" y="0" width="2200" height="3208" xlink:href="1/img/43.png" />
<image preserveAspectRatio="none" x="0" y="0" width="2200" height="3208" xlink:href="1/img/44.png" />
<image preserveAspectRatio="none" x="0" y="0" width="2200" height="3208" xlink:href="1/img/45.png" />
<image preserveAspectRatio="none" x="0" y="0" width="2200" height="3208" xlink:href="1/img/46.png" />
<image preserveAspectRatio="none" x="0" y="0" width="2200" height="3208" xlink:href="1/img/47.png" />
<image preserveAspectRatio="none" x="0" y="0" width="2200" height="3208" xlink:href="1/img/48.png" />
<image preserveAspectRatio="none" x="0" y="0" width="2200" height="3208" xlink:href="1/img/49.png" />
<image preserveAspectRatio="none" x="0" y="0" width="2200" height="3208" xlink:href="1/img/50.png" />
<image preserveAspectRatio="none" x="0" y="0" width="2200" height="3208" xlink:href="1/img/51.png" />
<image preserveAspectRatio="none" x="0" y="0" width="2200" height="3208" xlink:href="1/img/52.png" />
<image preserveAspectRatio="none" x="0" y="0" width="2200" height="3208" xlink:href="1/img/53.png" />
<image preserveAspectRatio="none" x="0" y="0" width="2200" height="3208" xlink:href="1/img/54.png" />
<image preserveAspectRatio="none" x="0" y="0" width="2200" height="3208" xlink:href="1/img/55.png" />
<image preserveAspectRatio="none" x="0" y="0" width="2200" height="3208" xlink:href="1/img/56.png" />
<image preserveAspectRatio="none" x="0" y="0" width="2200" height="3208" xlink:href="1/img/57.png" />
<image preserveAspectRatio="none" x="0" y="0" width="2200" height="3208" xlink:href="1/img/58.png" />
<image preserveAspectRatio="none" x="0" y="0" width="2200" height="3208" xlink:href="1/img/59.png" />
<image preserveAspectRatio="none" x="0" y="0" width="2200" height="3208" xlink:href="1/img/60.png" />
<image preserveAspectRatio="none" x="0" y="0" width="2200" height="3208" xlink:href="1/img/61.png" />
<image preserveAspectRatio="none" x="0" y="0" width="2200" height="3208" xlink:href="1/img/62.png" />
<image preserveAspectRatio="none" x="0" y="0" width="2200" height="3208" xlink:href="1/img/63.png" />
<image preserveAspectRatio="none" x="0" y="0" width="2200" height="3208" xlink:href="1/img/64.png" />
<image preserveAspectRatio="none" x="0" y="0" width="2200" height="3208" xlink:href="1/img/65.png" />
<image preserveAspectRatio="none" x="0" y="0" width="2200" height="3208" xlink:href="1/img/66.png" />
<image preserveAspectRatio="none" x="0" y="0" width="2200" height="3208" xlink:href="1/img/67.png" />
<image preserveAspectRatio="none" x="0" y="0" width="2200" height="3208" xlink:href="1/img/68.png" />
<image preserveAspectRatio="none" x="0" y="0" width="2200" height="3208" xlink:href="1/img/69.png" />
<image preserveAspectRatio="none" x="0" y="0" width="2200" height="3208" xlink:href="1/img/70.png" />
<image preserveAspectRatio="none" x="0" y="0" width="2200" height="3208" xlink:href="1/img/71.png" />
<image preserveAspectRatio="none" x="0" y="0" width="2200" height="3208" xlink:href="1/img/72.png" />
<image preserveAspectRatio="none" x="0" y="0" width="2200" height="3208" xlink:href="1/img/73.png" />
<image preserveAspectRatio="none" x="0" y="0" width="2200" height="3208" xlink:href="1/img/74.png" />
<image preserveAspectRatio="none" x="0" y="0" width="2200" height="3208" xlink:href="1/img/75.png" />
<image preserveAspectRatio="none" x="0" y="0" width="2200" height="3208" xlink:href="1/img/76.png" />
<image preserveAspectRatio="none" x="0" y="0" width="2200" height="3208" xlink:href="1/img/77.png" />
<image preserveAspectRatio="none" x="0" y="0" width="2200" height="3208" xlink:href="1/img/78.png" />
<image preserveAspectRatio="none" x="0" y="0" width="2200" height="3208" xlink:href="1/img/79.png" />
<image preserveAspectRatio="none" x="0" y="0" width="2200" height="3208" xlink:href="1/img/80.png" />
<image preserveAspectRatio="none" x="0" y="0" width="2200" height="3208" xlink:href="1/img/81.png" />
<image preserveAspectRatio="none" x="0" y="0" width="2200" height="3208" xlink:href="1/img/82.png" />
<image preserveAspectRatio="none" x="0" y="0" width="2200" height="3208" xlink:href="1/img/83.png" />
<image preserveAspectRatio="none" x="0" y="0" width="2200" height="3208" xlink:href="1/img/84.png" />
<image preserveAspectRatio="none" x="0" y="0" width="2200" height="3208" xlink:href="1/img/85.png" />
<image preserveAspectRatio="none" x="0" y="0" width="2200" height="3208" xlink:href="1/img/86.png" />
<image preserveAspectRatio="none" x="0" y="0" width="2200" height="3208" xlink:href="1/img/87.png" />
<image preserveAspectRatio="none" x="0" y="0" width="2200" height="3208" xlink:href="1/img/88.png" />
<image preserveAspectRatio="none" x="0" y="0" width="2200" height="3208" xlink:href="1/img/89.png" />
<image preserveAspectRatio="none" x="0" y="0" width="2200" height="3208" xlink:href="1/img/90.png" />
<image preserveAspectRatio="none" x="0" y="0" width="2200" height="3208" xlink:href="1/img/91.png" />
<image preserveAspectRatio="none" x="0" y="0" width="2200" height="3208" xlink:href="1/img/92.png" />
<image preserveAspectRatio="none" x="0" y="0" width="2200" height="3208" xlink:href="1/img/93.png" />
<image preserveAspectRatio="none" x="0" y="0" width="2200" height="3208" xlink:href="1/img/94.png" />
<image preserveAspectRatio="none" x="0" y="0" width="2200" height="3208" xlink:href="1/img/95.png" />
<image preserveAspectRatio="none" x="0" y="0" width="2200" height="3208" xlink:href="1/img/96.png" />
<image preserveAspectRatio="none" x="0" y="0" width="2200" height="3208" xlink:href="1/img/97.png" />
<image preserveAspectRatio="none" x="0" y="0" width="2200" height="3208" xlink:href="1/img/98.png" />
<image preserveAspectRatio="none" x="0" y="0" width="2200" height="3208" xlink:href="1/img/99.png" />
<image preserveAspectRatio="none" x="0" y="0" width="2200" height="3208" xlink:href="1/img/100.png" />
<image preserveAspectRatio="none" x="0" y="0" width="2200" height="3208" xlink:href="1/img/101.png" />
<image preserveAspectRatio="none" x="0" y="0" width="2200" height="3208" xlink:href="1/img/102.png" />
<image preserveAspectRatio="none" x="0" y="0" width="2200" height="3208" xlink:href="1/img/103.png" />
<image preserveAspectRatio="none" x="0" y="0" width="2200" height="3208" xlink:href="1/img/104.png" />
<image preserveAspectRatio="none" x="0" y="0" width="2200" height="3208" xlink:href="1/img/105.png" />
<image preserveAspectRatio="none" x="0" y="0" width="2200" height="3208" xlink:href="1/img/106.png" />

</svg>
